<svg xmlns="http://www.w3.org/2000/svg" xmlns:xlink="http://www.w3.org/1999/xlink" width="1060pt" height="802pt" viewBox="0.00 0.00 1059.78 802.40">
<g id="graph0" class="graph" transform="scale(1 1) rotate(0) translate(4 798.4)">
<polygon fill="white" stroke="none" points="-4,4 -4,-798.4 1055.78,-798.4 1055.78,4 -4,4"/>
<!-- dummy -->
<g id="node1" class="node">
<title>dummy</title>
</g>
<!-- start -->
<g id="node2" class="node">
<title>start</title>
<ellipse fill="black" stroke="black" cx="27" cy="-326.6" rx="1.8" ry="1.8"/>
</g>
<!-- S -->
<g id="node3" class="node">
<title>S</title>
<ellipse fill="none" stroke="black" cx="109" cy="-326.6" rx="18" ry="18"/>
<text text-anchor="middle" x="109" y="-322.4" font-family="Times,serif" font-size="14.00">S</text>
</g>
<!-- start&#45;&gt;S -->
<g id="edge1" class="edge">
<title>start-&gt;S</title>
<path fill="none" stroke="black" d="M29.13,-326.6C34.62,-326.6 59.08,-326.6 79.32,-326.6"/>
<polygon fill="black" stroke="black" points="79.06,-330.1 89.06,-326.6 79.06,-323.1 79.06,-330.1"/>
</g>
<!-- S&#45;&gt;S -->
<g id="edge4" class="edge">
<title>S-&gt;S</title>
<path fill="none" stroke="black" d="M102.53,-343.64C101.21,-353.46 103.37,-362.6 109,-362.6 112.26,-362.6 114.35,-359.54 115.28,-355.07"/>
<polygon fill="black" stroke="black" points="118.78,-355.21 115.44,-345.15 111.78,-355.09 118.78,-355.21"/>
<text text-anchor="middle" x="109" y="-366.8" font-family="Times,serif" font-size="14.00">c</text>
</g>
<!-- F -->
<g id="node4" class="node">
<title>F</title>
<ellipse fill="none" stroke="black" cx="1029.78" cy="-409.6" rx="18" ry="18"/>
<ellipse fill="none" stroke="black" cx="1029.78" cy="-409.6" rx="22" ry="22"/>
<text text-anchor="middle" x="1029.78" y="-405.4" font-family="Times,serif" font-size="14.00">F</text>
</g>
<!-- S&#45;&gt;F -->
<g id="edge27" class="edge">
<title>S-&gt;F</title>
<path fill="none" stroke="black" d="M109.85,-345.01C109.52,-415.47 110.81,-667.62 145,-738.6 155.94,-761.32 161,-777.6 186.21,-777.6 186.21,-777.6 186.21,-777.6 835.12,-777.6 906.01,-777.6 942.99,-791.85 989.78,-738.6 1027.89,-695.23 1030.21,-517.55 1029.44,-442.89"/>
<polygon fill="black" stroke="black" points="1032.95,-443.29 1029.32,-433.34 1025.95,-443.38 1032.95,-443.29"/>
<text text-anchor="middle" x="445.59" y="-781.8" font-family="Times,serif" font-size="14.00">epsilon, A/A</text>
</g>
<!-- S&#45;&gt;F -->
<g id="edge28" class="edge">
<title>S-&gt;F</title>
<path fill="none" stroke="black" d="M109.56,-345C108.16,-423.27 107.86,-724.6 186.21,-724.6 186.21,-724.6 186.21,-724.6 835.12,-724.6 908.08,-724.6 943.4,-725.91 989.78,-669.6 1017.79,-635.59 1025.74,-505.01 1027.95,-442.86"/>
<polygon fill="black" stroke="black" points="1031.44,-443.36 1028.26,-433.25 1024.44,-443.13 1031.44,-443.36"/>
<text text-anchor="middle" x="445.59" y="-728.8" font-family="Times,serif" font-size="14.00">epsilon, B/B</text>
</g>
<!-- a -->
<g id="node5" class="node">
<title>a</title>
<ellipse fill="none" stroke="black" cx="187.21" cy="-388.6" rx="18" ry="18"/>
<text text-anchor="middle" x="187.21" y="-384.4" font-family="Times,serif" font-size="14.00">a</text>
</g>
<!-- S&#45;&gt;a -->
<g id="edge2" class="edge">
<title>S-&gt;a</title>
<path fill="none" stroke="black" d="M127.2,-328.52C135.08,-330.06 144.2,-332.83 151.21,-337.8 160.23,-344.19 167.66,-353.68 173.33,-362.73"/>
<polygon fill="black" stroke="black" points="170.2,-364.32 178.2,-371.27 176.28,-360.85 170.2,-364.32"/>
<text text-anchor="middle" x="148.11" y="-342" font-family="Times,serif" font-size="14.00">a</text>
</g>
<!-- b -->
<g id="node6" class="node">
<title>b</title>
<ellipse fill="none" stroke="black" cx="445.59" cy="-168.6" rx="18" ry="18"/>
<text text-anchor="middle" x="445.59" y="-164.4" font-family="Times,serif" font-size="14.00">b</text>
</g>
<!-- S&#45;&gt;b -->
<g id="edge3" class="edge">
<title>S-&gt;b</title>
<path fill="none" stroke="black" d="M112.2,-308.58C115.64,-288.51 124.19,-256.52 145,-238.6 147.62,-236.34 342.73,-191.78 416.63,-174.95"/>
<polygon fill="black" stroke="black" points="417.34,-178.38 426.32,-172.75 415.79,-171.56 417.34,-178.38"/>
<text text-anchor="middle" x="226.71" y="-222.93" font-family="Times,serif" font-size="14.00">b</text>
</g>
<!-- a&#45;&gt;S -->
<g id="edge8" class="edge">
<title>a-&gt;S</title>
<path fill="none" stroke="black" d="M172.71,-377.61C161.58,-368.56 145.56,-355.53 132.5,-344.9"/>
<polygon fill="black" stroke="black" points="134.77,-342.24 124.8,-338.64 130.35,-347.67 134.77,-342.24"/>
<text text-anchor="middle" x="148.11" y="-363.66" font-family="Times,serif" font-size="14.00">c</text>
</g>
<!-- a&#45;&gt;F -->
<g id="edge29" class="edge">
<title>a-&gt;F</title>
<path fill="none" stroke="black" d="M193.34,-405.79C206.13,-445.49 243.41,-543.82 311.34,-591.6 412.73,-662.91 464.99,-616.18 588.91,-618.6 767.42,-622.09 860.25,-715.47 989.78,-592.6 1010.98,-572.5 1021.64,-490.32 1026.11,-443.21"/>
<polygon fill="black" stroke="black" points="1029.59,-443.55 1027,-433.28 1022.62,-442.92 1029.59,-443.55"/>
<text text-anchor="middle" x="535.14" y="-628.52" font-family="Times,serif" font-size="14.00">epsilon, A/A</text>
</g>
<!-- a&#45;&gt;F -->
<g id="edge30" class="edge">
<title>a-&gt;F</title>
<path fill="none" stroke="black" d="M190.78,-406.63C198.6,-453.7 226.99,-579.66 311.34,-623.6 408.85,-674.38 573.42,-659.95 798.35,-666.6 884.5,-669.15 931.39,-699 989.78,-635.6 1015.1,-608.11 1024.26,-499.41 1027.34,-443.38"/>
<polygon fill="black" stroke="black" points="1030.84,-443.63 1027.85,-433.47 1023.84,-443.28 1030.84,-443.63"/>
<text text-anchor="middle" x="535.14" y="-667.65" font-family="Times,serif" font-size="14.00">epsilon, B/B</text>
</g>
<!-- a&#45;&gt;a -->
<g id="edge5" class="edge">
<title>a-&gt;a</title>
<path fill="none" stroke="black" d="M180.28,-405.64C178.87,-415.46 181.18,-424.6 187.21,-424.6 190.7,-424.6 192.95,-421.54 193.95,-417.07"/>
<polygon fill="black" stroke="black" points="197.44,-417.21 194.12,-407.15 190.44,-417.09 197.44,-417.21"/>
<text text-anchor="middle" x="187.21" y="-428.8" font-family="Times,serif" font-size="14.00">a</text>
</g>
<!-- a b -->
<g id="node7" class="node">
<title>a b</title>
<ellipse fill="none" stroke="black" cx="270.78" cy="-395.6" rx="22.57" ry="22.57"/>
<text text-anchor="middle" x="270.78" y="-391.4" font-family="Times,serif" font-size="14.00">a b</text>
</g>
<!-- a&#45;&gt;a b -->
<g id="edge7" class="edge">
<title>a-&gt;a b</title>
<path fill="none" stroke="black" d="M205.51,-390.08C214.58,-390.86 225.99,-391.84 236.68,-392.76"/>
<polygon fill="black" stroke="black" points="236.07,-396.22 246.33,-393.59 236.67,-389.25 236.07,-396.22"/>
<text text-anchor="middle" x="226.71" y="-396.3" font-family="Times,serif" font-size="14.00">b</text>
</g>
<!-- b&#45;&gt;S -->
<g id="edge18" class="edge">
<title>b-&gt;S</title>
<path fill="none" stroke="black" d="M427.28,-169.65C401.81,-171.31 352.77,-174.94 311.34,-180.6 271.89,-185.99 261.28,-185.09 223.21,-196.8 198.15,-204.51 192.97,-209.49 169.21,-220.6 158.33,-225.69 153.04,-223.68 145,-232.6 128.63,-250.77 119.68,-277.29 114.95,-297.53"/>
<polygon fill="black" stroke="black" points="111.56,-296.63 112.93,-307.14 118.41,-298.07 111.56,-296.63"/>
<text text-anchor="middle" x="226.71" y="-201" font-family="Times,serif" font-size="14.00">c</text>
</g>
<!-- b&#45;&gt;F -->
<g id="edge31" class="edge">
<title>b-&gt;F</title>
<path fill="none" stroke="black" d="M454.17,-152.5C462.73,-136.27 478.25,-111.9 499.36,-99.6 687.67,10.16 835.1,53.96 989.78,-99.6 1028.16,-137.7 1030.42,-304.52 1029.54,-376.43"/>
<polygon fill="black" stroke="black" points="1026.04,-375.95 1029.39,-386 1033.04,-376.06 1026.04,-375.95"/>
<text text-anchor="middle" x="729.41" y="-18.98" font-family="Times,serif" font-size="14.00">epsilon, A/A</text>
</g>
<!-- b&#45;&gt;F -->
<g id="edge32" class="edge">
<title>b-&gt;F</title>
<path fill="none" stroke="black" d="M462.48,-161.07C534.2,-128.31 830.99,-6 989.78,-145.6 1023.54,-175.27 1028.53,-311.58 1028.97,-375.86"/>
<polygon fill="black" stroke="black" points="1025.47,-375.85 1029,-385.83 1032.47,-375.82 1025.47,-375.85"/>
<text text-anchor="middle" x="729.41" y="-94.92" font-family="Times,serif" font-size="14.00">epsilon, B/B</text>
</g>
<!-- b&#45;&gt;b -->
<g id="edge6" class="edge">
<title>b-&gt;b</title>
<path fill="none" stroke="black" d="M432.01,-180.77C424.97,-192.2 429.5,-204.6 445.59,-204.6 456.65,-204.6 462.25,-198.74 462.38,-191.36"/>
<polygon fill="black" stroke="black" points="465.85,-190.77 459.6,-182.22 459.16,-192.81 465.85,-190.77"/>
<text text-anchor="middle" x="445.59" y="-208.8" font-family="Times,serif" font-size="14.00">b</text>
</g>
<!-- b a -->
<g id="node9" class="node">
<title>b a</title>
<ellipse fill="none" stroke="black" cx="624.69" cy="-252.6" rx="22.57" ry="22.57"/>
<text text-anchor="middle" x="624.69" y="-248.4" font-family="Times,serif" font-size="14.00">b a</text>
</g>
<!-- b&#45;&gt;b a -->
<g id="edge17" class="edge">
<title>b-&gt;b a</title>
<path fill="none" stroke="black" d="M462.97,-174.86C487.04,-184.22 533.17,-202.8 570.91,-221.8 578.95,-225.85 587.46,-230.59 595.24,-235.13"/>
<polygon fill="black" stroke="black" points="593.26,-238.03 603.65,-240.13 596.84,-232.01 593.26,-238.03"/>
<text text-anchor="middle" x="535.14" y="-226" font-family="Times,serif" font-size="14.00">a</text>
</g>
<!-- a b&#45;&gt;S -->
<g id="edge10" class="edge">
<title>a b-&gt;S</title>
<path fill="none" stroke="black" d="M254.08,-380.19C241.73,-368.88 223.6,-353.95 205.21,-344.8 184.38,-334.43 158.27,-329.95 138.66,-328.03"/>
<polygon fill="black" stroke="black" points="139.15,-324.55 128.91,-327.25 138.6,-331.53 139.15,-324.55"/>
<text text-anchor="middle" x="187.21" y="-349" font-family="Times,serif" font-size="14.00">c</text>
</g>
<!-- a b&#45;&gt;F -->
<g id="edge33" class="edge">
<title>a b-&gt;F</title>
<path fill="none" stroke="black" d="M274.46,-418.21C279.64,-458.07 292.19,-538.54 311.34,-558.6 353.95,-603.24 382.88,-597.6 444.59,-597.6 444.59,-597.6 444.59,-597.6 835.12,-597.6 906.01,-597.6 939.43,-608.5 989.78,-558.6 1020.45,-528.21 1027.95,-476.88 1029.3,-443.12"/>
<polygon fill="black" stroke="black" points="1032.79,-443.56 1029.52,-433.48 1025.79,-443.4 1032.79,-443.56"/>
<text text-anchor="middle" x="624.69" y="-601.8" font-family="Times,serif" font-size="14.00">epsilon, A/A</text>
</g>
<!-- a b&#45;&gt;F -->
<g id="edge34" class="edge">
<title>a b-&gt;F</title>
<path fill="none" stroke="black" d="M276.96,-417.66C282.54,-437.17 293.17,-465.3 311.34,-483.6 357.24,-529.81 379.46,-544.6 444.59,-544.6 444.59,-544.6 444.59,-544.6 835.12,-544.6 906.12,-544.6 936.27,-551.26 989.78,-504.6 1007.95,-488.76 1017.81,-463.15 1023.06,-442.51"/>
<polygon fill="black" stroke="black" points="1026.46,-443.35 1025.26,-432.82 1019.64,-441.8 1026.46,-443.35"/>
<text text-anchor="middle" x="624.69" y="-548.8" font-family="Times,serif" font-size="14.00">epsilon, B/B</text>
</g>
<!-- a b&#45;&gt;b -->
<g id="edge13" class="edge">
<title>a b-&gt;b</title>
<path fill="none" stroke="black" d="M279.97,-374.66C286.48,-360.61 296.9,-342.74 311.34,-331.8 341.01,-309.33 364.46,-333.85 391.81,-308.6 423.46,-279.38 436.25,-229.28 441.33,-197.6"/>
<polygon fill="black" stroke="black" points="444.76,-198.34 442.72,-187.95 437.83,-197.35 444.76,-198.34"/>
<text text-anchor="middle" x="351.58" y="-336" font-family="Times,serif" font-size="14.00">b</text>
</g>
<!-- a b a -->
<g id="node8" class="node">
<title>a b a</title>
<ellipse fill="none" stroke="black" cx="445.59" cy="-435.6" rx="29.27" ry="29.27"/>
<text text-anchor="middle" x="445.59" y="-431.4" font-family="Times,serif" font-size="14.00">a b a</text>
</g>
<!-- a b&#45;&gt;a b a -->
<g id="edge9" class="edge">
<title>a b-&gt;a b a</title>
<path fill="none" stroke="black" d="M279.91,-416.49C286.29,-429.74 296.58,-445.8 311.34,-453.6 341.32,-469.44 380.16,-461.51 408.17,-451.69"/>
<polygon fill="black" stroke="black" points="409.16,-455.06 417.28,-448.26 406.69,-448.51 409.16,-455.06"/>
<text text-anchor="middle" x="351.58" y="-466.8" font-family="Times,serif" font-size="14.00">a, B/epsilon</text>
</g>
<!-- a b&#45;&gt;a b a -->
<g id="edge11" class="edge">
<title>a b-&gt;a b a</title>
<path fill="none" stroke="black" d="M291.11,-405.62C297.42,-408.56 304.56,-411.54 311.34,-413.6 342.02,-422.93 377.95,-428.57 404.76,-431.8"/>
<polygon fill="black" stroke="black" points="404.18,-435.26 414.51,-432.91 404.97,-428.3 404.18,-435.26"/>
<text text-anchor="middle" x="351.58" y="-434.06" font-family="Times,serif" font-size="14.00">a, z_0/(A z_0)</text>
</g>
<!-- a b&#45;&gt;a b a -->
<g id="edge12" class="edge">
<title>a b-&gt;a b a</title>
<path fill="none" stroke="black" d="M292.88,-390.69C317.43,-385.96 358.8,-381.1 391.81,-392.8 400.76,-395.97 409.3,-401.38 416.8,-407.31"/>
<polygon fill="black" stroke="black" points="414.07,-409.58 423.95,-413.42 418.62,-404.26 414.07,-409.58"/>
<text text-anchor="middle" x="351.58" y="-397" font-family="Times,serif" font-size="14.00">a, A/(A A)</text>
</g>
<!-- a b a&#45;&gt;F -->
<g id="edge14" class="edge">
<title>a b a-&gt;F</title>
<path fill="none" stroke="black" d="M467.46,-455.58C476.53,-462.98 487.74,-470.56 499.36,-474.6 602.29,-510.43 895.83,-531.82 989.78,-476.6 1003.06,-468.8 1012.26,-454.59 1018.37,-441.25"/>
<polygon fill="black" stroke="black" points="1021.49,-442.87 1022.06,-432.29 1015.02,-440.21 1021.49,-442.87"/>
<text text-anchor="middle" x="729.41" y="-514.48" font-family="Times,serif" font-size="14.00">epsilon, A/epsilon</text>
</g>
<!-- a b a&#45;&gt;F -->
<g id="edge15" class="edge">
<title>a b a-&gt;F</title>
<path fill="none" stroke="black" d="M474.36,-442.5C482.37,-444.19 491.17,-445.76 499.36,-446.6 531,-449.86 539.12,-446.98 570.91,-446.6 757.12,-444.38 812.71,-494.24 989.78,-436.6 994.45,-435.08 999.06,-432.8 1003.39,-430.21"/>
<polygon fill="black" stroke="black" points="1005.3,-433.13 1011.6,-424.61 1001.37,-427.35 1005.3,-433.13"/>
<text text-anchor="middle" x="729.41" y="-466.1" font-family="Times,serif" font-size="14.00">epsilon, B/epsilon</text>
</g>
<!-- a b a&#45;&gt;F -->
<g id="edge37" class="edge">
<title>a b a-&gt;F</title>
<path fill="none" stroke="black" d="M475.06,-434.33C572.56,-429.97 892.69,-415.68 996.19,-411.06"/>
<polygon fill="black" stroke="black" points="996.09,-414.56 1005.93,-410.62 995.78,-407.57 996.09,-414.56"/>
<text text-anchor="middle" x="729.41" y="-429.19" font-family="Times,serif" font-size="14.00">epsilon, A/A</text>
</g>
<!-- a b a&#45;&gt;F -->
<g id="edge38" class="edge">
<title>a b a-&gt;F</title>
<path fill="none" stroke="black" d="M474.78,-430.68C482.72,-429.33 491.38,-427.88 499.36,-426.6 578.84,-413.88 598.2,-405.77 678.47,-399.8 723.62,-396.44 735.08,-398.91 780.35,-399.8 857.76,-401.33 948.67,-405.53 996.15,-407.9"/>
<polygon fill="black" stroke="black" points="995.85,-411.39 1006.01,-408.4 996.2,-404.4 995.85,-411.39"/>
<text text-anchor="middle" x="729.41" y="-404" font-family="Times,serif" font-size="14.00">epsilon, B/B</text>
</g>
<!-- a b a&#45;&gt;b a -->
<g id="edge16" class="edge">
<title>a b a-&gt;b a</title>
<path fill="none" stroke="black" d="M463.99,-412.32C473.39,-401.14 485.83,-388.35 499.36,-379.8 527.63,-361.95 545.5,-378.32 570.91,-356.6 592.74,-337.94 606.58,-308.05 614.58,-285.09"/>
<polygon fill="black" stroke="black" points="617.81,-286.48 617.58,-275.89 611.15,-284.31 617.81,-286.48"/>
<text text-anchor="middle" x="535.14" y="-384" font-family="Times,serif" font-size="14.00">epsilon</text>
</g>
<!-- b a&#45;&gt;S -->
<g id="edge22" class="edge">
<title>b a-&gt;S</title>
<path fill="none" stroke="black" d="M601.88,-252.6C568.45,-252.6 502.55,-252.6 446.59,-252.6 186.21,-252.6 186.21,-252.6 186.21,-252.6 157.84,-252.6 136.05,-279.32 123.17,-300.65"/>
<polygon fill="black" stroke="black" points="120.2,-298.8 118.32,-309.23 126.29,-302.24 120.2,-298.8"/>
<text text-anchor="middle" x="270.78" y="-256.8" font-family="Times,serif" font-size="14.00">c</text>
</g>
<!-- b a&#45;&gt;F -->
<g id="edge35" class="edge">
<title>b a-&gt;F</title>
<path fill="none" stroke="black" d="M642.57,-238.62C652.39,-231.41 665.38,-223.36 678.47,-219.6 736.93,-202.83 963.48,-205.49 989.78,-227.6 1012.08,-246.34 1022.31,-328.9 1026.41,-376.13"/>
<polygon fill="black" stroke="black" points="1022.9,-376.13 1027.21,-385.81 1029.88,-375.55 1022.9,-376.13"/>
<text text-anchor="middle" x="834.12" y="-213.84" font-family="Times,serif" font-size="14.00">epsilon, A/A</text>
</g>
<!-- b a&#45;&gt;F -->
<g id="edge36" class="edge">
<title>b a-&gt;F</title>
<path fill="none" stroke="black" d="M640.08,-235.5C649.81,-225.12 663.57,-212.57 678.47,-205.6 803.8,-146.98 890.28,-110.45 989.78,-206.6 1013.55,-229.56 1023.3,-324.54 1026.91,-376.03"/>
<polygon fill="black" stroke="black" points="1023.39,-375.96 1027.54,-385.71 1030.38,-375.5 1023.39,-375.96"/>
<text text-anchor="middle" x="834.12" y="-160.62" font-family="Times,serif" font-size="14.00">epsilon, B/B</text>
</g>
<!-- b a&#45;&gt;a -->
<g id="edge23" class="edge">
<title>b a-&gt;a</title>
<path fill="none" stroke="black" d="M602.82,-259.05C593.19,-261.79 581.56,-264.77 570.91,-266.6 456.84,-286.23 418.67,-244.46 311.34,-287.8 268.64,-305.04 229.34,-342.57 207.12,-366.66"/>
<polygon fill="black" stroke="black" points="204.57,-364.26 200.48,-374.03 209.77,-368.94 204.57,-364.26"/>
<text text-anchor="middle" x="351.58" y="-292" font-family="Times,serif" font-size="14.00">a</text>
</g>
<!-- b a b -->
<g id="node10" class="node">
<title>b a b</title>
<ellipse fill="none" stroke="black" cx="834.12" cy="-299.6" rx="29.81" ry="29.81"/>
<text text-anchor="middle" x="834.12" y="-295.4" font-family="Times,serif" font-size="14.00">b a b</text>
</g>
<!-- b a&#45;&gt;b a b -->
<g id="edge19" class="edge">
<title>b a-&gt;b a b</title>
<path fill="none" stroke="black" d="M645.86,-243.46C676.52,-230.99 735.97,-212.5 780.35,-233.8 793.79,-240.25 804.88,-251.97 813.37,-263.76"/>
<polygon fill="black" stroke="black" points="810.32,-265.48 818.78,-271.86 816.14,-261.6 810.32,-265.48"/>
<text text-anchor="middle" x="729.41" y="-238" font-family="Times,serif" font-size="14.00">b, A/epsilon</text>
</g>
<!-- b a&#45;&gt;b a b -->
<g id="edge20" class="edge">
<title>b a-&gt;b a b</title>
<path fill="none" stroke="black" d="M641.86,-267.97C651.65,-276.27 664.85,-285.77 678.47,-290.6 715.71,-303.82 761.16,-304.83 793.12,-303.29"/>
<polygon fill="black" stroke="black" points="792.96,-306.8 802.73,-302.71 792.54,-299.82 792.96,-306.8"/>
<text text-anchor="middle" x="729.41" y="-308.03" font-family="Times,serif" font-size="14.00">b, z_0/(B z_0)</text>
</g>
<!-- b a&#45;&gt;b a b -->
<g id="edge21" class="edge">
<title>b a-&gt;b a b</title>
<path fill="none" stroke="black" d="M647.53,-252.3C678.01,-252.49 734.72,-255.06 780.35,-269.8 786.63,-271.83 793.01,-274.66 799.06,-277.77"/>
<polygon fill="black" stroke="black" points="797.07,-280.67 807.52,-282.45 800.46,-274.54 797.07,-280.67"/>
<text text-anchor="middle" x="729.41" y="-274" font-family="Times,serif" font-size="14.00">b, B/(B B)</text>
</g>
<!-- b a b&#45;&gt;F -->
<g id="edge24" class="edge">
<title>b a b-&gt;F</title>
<path fill="none" stroke="black" d="M855.82,-320.76C864.95,-329 876.25,-337.83 887.9,-343.6 929.53,-364.19 949.66,-343.41 989.78,-366.8 997.07,-371.05 1003.76,-377.11 1009.48,-383.33"/>
<polygon fill="black" stroke="black" points="1006.51,-385.25 1015.64,-390.62 1011.86,-380.72 1006.51,-385.25"/>
<text text-anchor="middle" x="938.84" y="-371" font-family="Times,serif" font-size="14.00">epsilon, A/epsilon</text>
</g>
<!-- b a b&#45;&gt;F -->
<g id="edge25" class="edge">
<title>b a b-&gt;F</title>
<path fill="none" stroke="black" d="M863.95,-302.42C905.92,-306.76 979.94,-315.34 989.78,-322.8 1006.9,-335.78 1016.69,-357.96 1022.18,-376.65"/>
<polygon fill="black" stroke="black" points="1018.78,-377.47 1024.69,-386.26 1025.55,-375.7 1018.78,-377.47"/>
<text text-anchor="middle" x="938.84" y="-327" font-family="Times,serif" font-size="14.00">epsilon, B/epsilon</text>
</g>
<!-- b a b&#45;&gt;F -->
<g id="edge39" class="edge">
<title>b a b-&gt;F</title>
<path fill="none" stroke="black" d="M861.5,-287.23C894.77,-273.64 952.19,-257.16 989.78,-284.8 1017.99,-305.54 1026.37,-346.6 1028.57,-375.95"/>
<polygon fill="black" stroke="black" points="1025.07,-376.02 1029.08,-385.83 1032.06,-375.66 1025.07,-376.02"/>
<text text-anchor="middle" x="938.84" y="-289" font-family="Times,serif" font-size="14.00">epsilon, A/A</text>
</g>
<!-- b a b&#45;&gt;F -->
<g id="edge40" class="edge">
<title>b a b-&gt;F</title>
<path fill="none" stroke="black" d="M852.7,-275.85C861.89,-265.45 874.1,-254.36 887.9,-248.8 929.9,-231.87 954.19,-220.81 989.78,-248.8 1009.5,-264.31 1020.47,-333.51 1025.45,-375.92"/>
<polygon fill="black" stroke="black" points="1021.97,-376.3 1026.55,-385.85 1028.92,-375.53 1021.97,-376.3"/>
<text text-anchor="middle" x="938.84" y="-253" font-family="Times,serif" font-size="14.00">epsilon, B/B</text>
</g>
<!-- b a b&#45;&gt;a b -->
<g id="edge26" class="edge">
<title>b a b-&gt;a b</title>
<path fill="none" stroke="black" d="M807.59,-314.23C799.18,-318.35 789.6,-322.32 780.35,-324.6 658.98,-354.44 623.13,-318.44 499.36,-335.8 414.19,-347.75 393.77,-357.05 311.34,-381.6 308.6,-382.42 305.76,-383.32 302.92,-384.25"/>
<polygon fill="black" stroke="black" points="301.94,-380.89 293.62,-387.44 304.21,-387.51 301.94,-380.89"/>
<text text-anchor="middle" x="535.14" y="-340" font-family="Times,serif" font-size="14.00">epsilon</text>
</g>
</g>
</svg>