<svg xmlns="http://www.w3.org/2000/svg" xmlns:xlink="http://www.w3.org/1999/xlink" width="473pt" height="169pt" viewBox="0.00 0.00 473.43 169.00">
<g id="graph0" class="graph" transform="scale(1 1) rotate(0) translate(4 165)">
<polygon fill="white" stroke="none" points="-4,4 -4,-165 469.43,-165 469.43,4 -4,4"/>
<!-- dummy -->
<g id="node1" class="node">
<title>dummy</title>
</g>
<!-- start -->
<g id="node2" class="node">
<title>start</title>
<ellipse fill="black" stroke="black" cx="27" cy="-56" rx="1.8" ry="1.8"/>
</g>
<!-- 0 -->
<g id="node3" class="node">
<title>0</title>
<ellipse fill="none" stroke="black" cx="109" cy="-56" rx="18" ry="18"/>
<text text-anchor="middle" x="109" y="-51.8" font-family="Times,serif" font-size="14.00">0</text>
</g>
<!-- start&#45;&gt;0 -->
<g id="edge1" class="edge">
<title>start-&gt;0</title>
<path fill="none" stroke="black" d="M29.13,-56C34.62,-56 59.08,-56 79.32,-56"/>
<polygon fill="black" stroke="black" points="79.06,-59.5 89.06,-56 79.06,-52.5 79.06,-59.5"/>
</g>
<!-- 1 -->
<g id="node4" class="node">
<title>1</title>
<ellipse fill="none" stroke="black" cx="191.21" cy="-96" rx="18" ry="18"/>
<ellipse fill="none" stroke="black" cx="191.21" cy="-96" rx="22" ry="22"/>
<text text-anchor="middle" x="191.21" y="-91.8" font-family="Times,serif" font-size="14.00">1</text>
</g>
<!-- 0&#45;&gt;1 -->
<g id="edge2" class="edge">
<title>0-&gt;1</title>
<path fill="none" stroke="black" d="M125.47,-63.71C135.54,-68.73 148.99,-75.44 161.03,-81.44"/>
<polygon fill="black" stroke="black" points="159.25,-84.47 169.76,-85.8 162.37,-78.21 159.25,-84.47"/>
<text text-anchor="middle" x="148.11" y="-80.2" font-family="Times,serif" font-size="14.00">a</text>
</g>
<!-- 2 -->
<g id="node5" class="node">
<title>2</title>
<ellipse fill="none" stroke="black" cx="365.21" cy="-50" rx="18" ry="18"/>
<ellipse fill="none" stroke="black" cx="365.21" cy="-50" rx="22" ry="22"/>
<text text-anchor="middle" x="365.21" y="-45.8" font-family="Times,serif" font-size="14.00">2</text>
</g>
<!-- 0&#45;&gt;2 -->
<g id="edge3" class="edge">
<title>0-&gt;2</title>
<path fill="none" stroke="black" d="M127.47,-55.59C169.5,-54.6 276.79,-52.06 331.32,-50.78"/>
<polygon fill="black" stroke="black" points="331.31,-54.28 341.23,-50.54 331.15,-47.28 331.31,-54.28"/>
<text text-anchor="middle" x="234.71" y="-57.34" font-family="Times,serif" font-size="14.00">b</text>
</g>
<!-- 1&#45;&gt;1 -->
<g id="edge4" class="edge">
<title>1-&gt;1</title>
<path fill="none" stroke="black" d="M183.33,-116.99C182.36,-127.09 184.98,-136 191.21,-136 194.91,-136 197.34,-132.86 198.5,-128.19"/>
<polygon fill="black" stroke="black" points="201.98,-128.67 199.02,-118.5 194.99,-128.3 201.98,-128.67"/>
<text text-anchor="middle" x="191.21" y="-140.2" font-family="Times,serif" font-size="14.00">a</text>
</g>
<!-- 3 -->
<g id="node6" class="node">
<title>3</title>
<ellipse fill="none" stroke="black" cx="278.21" cy="-110" rx="18" ry="18"/>
<ellipse fill="none" stroke="black" cx="278.21" cy="-110" rx="22" ry="22"/>
<text text-anchor="middle" x="278.21" y="-105.8" font-family="Times,serif" font-size="14.00">3</text>
</g>
<!-- 1&#45;&gt;3 -->
<g id="edge5" class="edge">
<title>1-&gt;3</title>
<path fill="none" stroke="black" d="M213.23,-99.46C222.83,-101.04 234.42,-102.95 245.08,-104.71"/>
<polygon fill="black" stroke="black" points="244.22,-108.11 254.66,-106.28 245.36,-101.21 244.22,-108.11"/>
<text text-anchor="middle" x="234.71" y="-107.62" font-family="Times,serif" font-size="14.00">b</text>
</g>
<!-- 2&#45;&gt;2 -->
<g id="edge6" class="edge">
<title>2-&gt;2</title>
<path fill="none" stroke="black" d="M357.33,-70.99C356.36,-81.09 358.98,-90 365.21,-90 368.91,-90 371.34,-86.86 372.5,-82.19"/>
<polygon fill="black" stroke="black" points="375.98,-82.67 373.02,-72.5 368.99,-82.3 375.98,-82.67"/>
<text text-anchor="middle" x="365.21" y="-94.2" font-family="Times,serif" font-size="14.00">b</text>
</g>
<!-- 5 -->
<g id="node8" class="node">
<title>5</title>
<ellipse fill="none" stroke="black" cx="447.43" cy="-96" rx="18" ry="18"/>
<text text-anchor="middle" x="447.43" y="-91.8" font-family="Times,serif" font-size="14.00">5</text>
</g>
<!-- 2&#45;&gt;5 -->
<g id="edge7" class="edge">
<title>2-&gt;5</title>
<path fill="none" stroke="black" d="M384.82,-60.67C395.7,-66.91 409.58,-74.87 421.41,-81.65"/>
<polygon fill="black" stroke="black" points="419.42,-84.55 429.84,-86.49 422.9,-78.48 419.42,-84.55"/>
<text text-anchor="middle" x="408.32" y="-79.95" font-family="Times,serif" font-size="14.00">a</text>
</g>
<!-- 3&#45;&gt;2 -->
<g id="edge8" class="edge">
<title>3-&gt;2</title>
<path fill="none" stroke="black" d="M296.83,-97.57C308.56,-89.28 324.21,-78.23 337.48,-68.87"/>
<polygon fill="black" stroke="black" points="339.24,-71.92 345.39,-63.29 335.2,-66.2 339.24,-71.92"/>
<text text-anchor="middle" x="321.71" y="-86" font-family="Times,serif" font-size="14.00">b</text>
</g>
<!-- 4 -->
<g id="node7" class="node">
<title>4</title>
<ellipse fill="none" stroke="black" cx="365.21" cy="-143" rx="18" ry="18"/>
<text text-anchor="middle" x="365.21" y="-138.8" font-family="Times,serif" font-size="14.00">4</text>
</g>
<!-- 3&#45;&gt;4 -->
<g id="edge9" class="edge">
<title>3-&gt;4</title>
<path fill="none" stroke="black" d="M300.36,-109.55C308.37,-109.98 317.42,-111.23 325.21,-114.2 331.31,-116.52 337.29,-120.07 342.66,-123.9"/>
<polygon fill="black" stroke="black" points="340.36,-126.54 350.39,-129.95 344.67,-121.03 340.36,-126.54"/>
<text text-anchor="middle" x="321.71" y="-118.4" font-family="Times,serif" font-size="14.00">a</text>
</g>
<!-- 4&#45;&gt;3 -->
<g id="edge10" class="edge">
<title>4-&gt;3</title>
<path fill="none" stroke="black" d="M347.3,-139.61C338.47,-137.58 327.58,-134.68 318.21,-131 314.71,-129.62 311.11,-128 307.6,-126.28"/>
<polygon fill="black" stroke="black" points="309.25,-123.2 298.77,-121.67 306.01,-129.41 309.25,-123.2"/>
<text text-anchor="middle" x="321.71" y="-137.41" font-family="Times,serif" font-size="14.00">b</text>
</g>
<!-- 4&#45;&gt;5 -->
<g id="edge11" class="edge">
<title>4-&gt;5</title>
<path fill="none" stroke="black" d="M381.3,-134.16C392.62,-127.53 408.36,-118.31 421.53,-110.59"/>
<polygon fill="black" stroke="black" points="423.24,-113.64 430.1,-105.57 419.7,-107.6 423.24,-113.64"/>
<text text-anchor="middle" x="408.32" y="-123.7" font-family="Times,serif" font-size="14.00">a</text>
</g>
<!-- 5&#45;&gt;5 -->
<g id="edge12" class="edge">
<title>5-&gt;5</title>
<path fill="none" stroke="black" d="M440.5,-113.04C439.08,-122.86 441.39,-132 447.43,-132 450.92,-132 453.16,-128.94 454.16,-124.47"/>
<polygon fill="black" stroke="black" points="457.66,-124.61 454.33,-114.55 450.66,-124.49 457.66,-124.61"/>
<text text-anchor="middle" x="447.43" y="-136.2" font-family="Times,serif" font-size="14.00">a,b</text>
</g>
</g>
</svg>