<svg xmlns="http://www.w3.org/2000/svg" xmlns:xlink="http://www.w3.org/1999/xlink" width="1525pt" height="1276pt" viewBox="0.00 0.00 1524.93 1276.42">
<g id="graph0" class="graph" transform="scale(1 1) rotate(0) translate(4 1272.42)">
<title>NFA_no_eps</title>
<polygon fill="white" stroke="none" points="-4,4 -4,-1272.42 1520.93,-1272.42 1520.93,4 -4,4"/>
<!-- __start -->
<g id="node1" class="node">
<title>__start</title>
</g>
<!-- &amp; -->
<g id="node2" class="node">
<title>&amp;</title>
<ellipse fill="none" stroke="black" cx="109.55" cy="-592" rx="18.55" ry="18.55"/>
<text text-anchor="middle" x="109.55" y="-587.8" font-family="Times,serif" font-size="14.00">&amp;</text>
</g>
<!-- __start&#45;&gt;&amp; -->
<g id="edge1" class="edge">
<title>__start-&gt;&amp;</title>
<path fill="none" stroke="black" d="M53.93,-592C61.96,-592 70.87,-592 79.13,-592"/>
<polygon fill="black" stroke="black" points="79.06,-595.5 89.06,-592 79.05,-588.5 79.06,-595.5"/>
</g>
<!-- 0 -->
<g id="node11" class="node">
<title>0</title>
<ellipse fill="none" stroke="black" cx="190.18" cy="-787" rx="18" ry="18"/>
<text text-anchor="middle" x="190.18" y="-782.8" font-family="Times,serif" font-size="14.00">0</text>
</g>
<!-- &amp;&#45;&gt;0 -->
<g id="edge2" class="edge">
<title>&amp;-&gt;0</title>
<path fill="none" stroke="black" d="M117.39,-608.96C131.01,-642.76 161.65,-718.74 178.16,-759.67"/>
<polygon fill="black" stroke="black" points="174.86,-760.84 181.84,-768.81 181.35,-758.23 174.86,-760.84"/>
<text text-anchor="middle" x="149.6" y="-699.55" font-family="Times,serif" font-size="14.00">ε</text>
</g>
<!-- I0 -->
<g id="node12" class="node">
<title>I0</title>
<ellipse fill="none" stroke="black" cx="190.18" cy="-397" rx="19.08" ry="19.08"/>
<text text-anchor="middle" x="190.18" y="-392.8" font-family="Times,serif" font-size="14.00">I0</text>
</g>
<!-- &amp;&#45;&gt;I0 -->
<g id="edge3" class="edge">
<title>&amp;-&gt;I0</title>
<path fill="none" stroke="black" d="M117.39,-575.04C130.91,-541.5 161.19,-466.4 177.78,-425.26"/>
<polygon fill="black" stroke="black" points="181.01,-426.61 181.5,-416.03 174.52,-423.99 181.01,-426.61"/>
<text text-anchor="middle" x="149.6" y="-504.55" font-family="Times,serif" font-size="14.00">ε</text>
</g>
<!-- 20 -->
<g id="node3" class="node">
<title>20</title>
<ellipse fill="none" stroke="black" cx="1399.85" cy="-810" rx="20.69" ry="20.69"/>
<ellipse fill="none" stroke="black" cx="1399.85" cy="-810" rx="24.69" ry="24.69"/>
<text text-anchor="middle" x="1399.85" y="-805.8" font-family="Times,serif" font-size="14.00">20</text>
</g>
<!-- 21 -->
<g id="node4" class="node">
<title>21</title>
<ellipse fill="none" stroke="black" cx="1492.24" cy="-767" rx="20.69" ry="20.69"/>
<ellipse fill="none" stroke="black" cx="1492.24" cy="-767" rx="24.69" ry="24.69"/>
<text text-anchor="middle" x="1492.24" y="-762.8" font-family="Times,serif" font-size="14.00">21</text>
</g>
<!-- 20&#45;&gt;21 -->
<g id="edge58" class="edge">
<title>20-&gt;21</title>
<path fill="none" stroke="black" d="M1422.73,-799.59C1433.72,-794.36 1447.25,-787.93 1459.37,-782.16"/>
<polygon fill="black" stroke="black" points="1460.67,-785.42 1468.19,-777.96 1457.66,-779.1 1460.67,-785.42"/>
<text text-anchor="middle" x="1446.05" y="-793.99" font-family="Times,serif" font-size="14.00">b</text>
</g>
<!-- I4 -->
<g id="node5" class="node">
<title>I4</title>
<ellipse fill="none" stroke="black" cx="528.54" cy="-106" rx="19.08" ry="19.08"/>
<ellipse fill="none" stroke="black" cx="528.54" cy="-106" rx="23.08" ry="23.08"/>
<text text-anchor="middle" x="528.54" y="-101.8" font-family="Times,serif" font-size="14.00">I4</text>
</g>
<!-- I7 -->
<g id="node8" class="node">
<title>I7</title>
<ellipse fill="none" stroke="black" cx="617.7" cy="-76" rx="19.08" ry="19.08"/>
<ellipse fill="none" stroke="black" cx="617.7" cy="-76" rx="23.08" ry="23.08"/>
<text text-anchor="middle" x="617.7" y="-71.8" font-family="Times,serif" font-size="14.00">I7</text>
</g>
<!-- I4&#45;&gt;I7 -->
<g id="edge71" class="edge">
<title>I4-&gt;I7</title>
<path fill="none" stroke="black" d="M550.64,-98.74C560.84,-95.23 573.31,-90.94 584.65,-87.03"/>
<polygon fill="black" stroke="black" points="585.74,-90.36 594.06,-83.79 583.47,-83.74 585.74,-90.36"/>
<text text-anchor="middle" x="573.12" y="-96.1" font-family="Times,serif" font-size="14.00">b</text>
</g>
<!-- I4&#45;&gt;I0 -->
<g id="edge72" class="edge">
<title>I4-&gt;I0</title>
<path fill="none" stroke="black" d="M505.35,-102.3C467.97,-97.13 390.87,-91.05 333.42,-117.2 235.57,-161.74 204.06,-303.8 194.75,-366.62"/>
<polygon fill="black" stroke="black" points="191.32,-365.85 193.42,-376.24 198.26,-366.81 191.32,-365.85"/>
<text text-anchor="middle" x="352.5" y="-121.4" font-family="Times,serif" font-size="14.00">c</text>
</g>
<!-- I1 -->
<g id="node32" class="node">
<title>I1</title>
<ellipse fill="none" stroke="black" cx="271.34" cy="-272" rx="19.08" ry="19.08"/>
<text text-anchor="middle" x="271.34" y="-267.8" font-family="Times,serif" font-size="14.00">I1</text>
</g>
<!-- I4&#45;&gt;I1 -->
<g id="edge70" class="edge">
<title>I4-&gt;I1</title>
<path fill="none" stroke="black" d="M505.19,-107.23C466.88,-110.3 387.58,-121 333.42,-158 299.46,-181.2 309.06,-204.94 289.56,-247.29"/>
<polygon fill="black" stroke="black" points="286.46,-245.67 285.12,-256.18 292.72,-248.8 286.46,-245.67"/>
<text text-anchor="middle" x="397.94" y="-134.53" font-family="Times,serif" font-size="14.00">a</text>
</g>
<!-- I5 -->
<g id="node6" class="node">
<title>I5</title>
<ellipse fill="none" stroke="black" cx="528.54" cy="-400" rx="19.08" ry="19.08"/>
<ellipse fill="none" stroke="black" cx="528.54" cy="-400" rx="23.08" ry="23.08"/>
<text text-anchor="middle" x="528.54" y="-395.8" font-family="Times,serif" font-size="14.00">I5</text>
</g>
<!-- I8 -->
<g id="node9" class="node">
<title>I8</title>
<ellipse fill="none" stroke="black" cx="617.7" cy="-400" rx="19.08" ry="19.08"/>
<ellipse fill="none" stroke="black" cx="617.7" cy="-400" rx="23.08" ry="23.08"/>
<text text-anchor="middle" x="617.7" y="-395.8" font-family="Times,serif" font-size="14.00">I8</text>
</g>
<!-- I5&#45;&gt;I8 -->
<g id="edge74" class="edge">
<title>I5-&gt;I8</title>
<path fill="none" stroke="black" d="M551.98,-400C561.44,-400 572.65,-400 583.05,-400"/>
<polygon fill="black" stroke="black" points="582.82,-403.5 592.82,-400 582.82,-396.5 582.82,-403.5"/>
<text text-anchor="middle" x="573.12" y="-404.2" font-family="Times,serif" font-size="14.00">b</text>
</g>
<!-- I5&#45;&gt;I0 -->
<g id="edge75" class="edge">
<title>I5-&gt;I0</title>
<path fill="none" stroke="black" d="M511.2,-415.86C489.39,-435.82 448.57,-469.05 406.29,-482 330.1,-505.35 293.39,-516.47 227.26,-472 211.86,-461.65 202.84,-442.82 197.66,-426.62"/>
<polygon fill="black" stroke="black" points="201.15,-426.09 195.07,-417.41 194.41,-427.99 201.15,-426.09"/>
<text text-anchor="middle" x="352.5" y="-504.91" font-family="Times,serif" font-size="14.00">c</text>
</g>
<!-- I5&#45;&gt;I1 -->
<g id="edge73" class="edge">
<title>I5-&gt;I1</title>
<path fill="none" stroke="black" d="M505,-399.98C462.05,-398.8 367.52,-390.56 308.42,-343 295.2,-332.36 286.36,-315.61 280.74,-301.05"/>
<polygon fill="black" stroke="black" points="284.15,-300.19 277.56,-291.9 277.54,-302.5 284.15,-300.19"/>
<text text-anchor="middle" x="397.94" y="-391.52" font-family="Times,serif" font-size="14.00">a</text>
</g>
<!-- I6 -->
<g id="node7" class="node">
<title>I6</title>
<ellipse fill="none" stroke="black" cx="528.54" cy="-297" rx="19.08" ry="19.08"/>
<ellipse fill="none" stroke="black" cx="528.54" cy="-297" rx="23.08" ry="23.08"/>
<text text-anchor="middle" x="528.54" y="-292.8" font-family="Times,serif" font-size="14.00">I6</text>
</g>
<!-- I9 -->
<g id="node10" class="node">
<title>I9</title>
<ellipse fill="none" stroke="black" cx="617.7" cy="-297" rx="19.08" ry="19.08"/>
<ellipse fill="none" stroke="black" cx="617.7" cy="-297" rx="23.08" ry="23.08"/>
<text text-anchor="middle" x="617.7" y="-292.8" font-family="Times,serif" font-size="14.00">I9</text>
</g>
<!-- I6&#45;&gt;I9 -->
<g id="edge77" class="edge">
<title>I6-&gt;I9</title>
<path fill="none" stroke="black" d="M551.98,-297C561.44,-297 572.65,-297 583.05,-297"/>
<polygon fill="black" stroke="black" points="582.82,-300.5 592.82,-297 582.82,-293.5 582.82,-300.5"/>
<text text-anchor="middle" x="573.12" y="-301.2" font-family="Times,serif" font-size="14.00">b</text>
</g>
<!-- I6&#45;&gt;I0 -->
<g id="edge78" class="edge">
<title>I6-&gt;I0</title>
<path fill="none" stroke="black" d="M516.95,-317.47C498.09,-350.77 455.31,-413 398.94,-413 270.34,-413 270.34,-413 270.34,-413 253.41,-413 234.84,-409.44 219.95,-405.68"/>
<polygon fill="black" stroke="black" points="220.92,-402.32 210.35,-403.08 219.09,-409.07 220.92,-402.32"/>
<text text-anchor="middle" x="352.5" y="-417.2" font-family="Times,serif" font-size="14.00">c</text>
</g>
<!-- I6&#45;&gt;I1 -->
<g id="edge76" class="edge">
<title>I6-&gt;I1</title>
<path fill="none" stroke="black" d="M505.43,-294.83C459.53,-290.34 353.85,-279.98 302.05,-274.91"/>
<polygon fill="black" stroke="black" points="302.49,-271.44 292.2,-273.95 301.81,-278.4 302.49,-271.44"/>
<text text-anchor="middle" x="397.94" y="-289.28" font-family="Times,serif" font-size="14.00">a</text>
</g>
<!-- I7&#45;&gt;I0 -->
<g id="edge80" class="edge">
<title>I7-&gt;I0</title>
<path fill="none" stroke="black" d="M605.35,-56.03C590.91,-33.51 563.67,0 529.54,0 270.34,0 270.34,0 270.34,0 195.76,0 190.43,-272.83 190.79,-366.14"/>
<polygon fill="black" stroke="black" points="187.29,-366.09 190.85,-376.07 194.29,-366.05 187.29,-366.09"/>
<text text-anchor="middle" x="397.94" y="-4.2" font-family="Times,serif" font-size="14.00">b</text>
</g>
<!-- I7&#45;&gt;I1 -->
<g id="edge79" class="edge">
<title>I7-&gt;I1</title>
<path fill="none" stroke="black" d="M594.41,-75.15C581.85,-74.71 565.86,-74.22 551.62,-74 451.05,-72.46 409.69,-68.44 333.42,-134 294.84,-167.16 311.11,-195.37 289.35,-247.29"/>
<polygon fill="black" stroke="black" points="286.23,-245.71 285.27,-256.26 292.6,-248.61 286.23,-245.71"/>
<text text-anchor="middle" x="443.38" y="-85.24" font-family="Times,serif" font-size="14.00">a</text>
</g>
<!-- I3 -->
<g id="node34" class="node">
<title>I3</title>
<ellipse fill="none" stroke="black" cx="443.38" cy="-184" rx="19.08" ry="19.08"/>
<text text-anchor="middle" x="443.38" y="-179.8" font-family="Times,serif" font-size="14.00">I3</text>
</g>
<!-- I7&#45;&gt;I3 -->
<g id="edge81" class="edge">
<title>I7-&gt;I3</title>
<path fill="none" stroke="black" d="M601.7,-93.18C589.28,-106.64 570.64,-125.18 551.62,-138 525.66,-155.48 516.28,-154.81 487.46,-167 482.58,-169.06 477.35,-171.19 472.29,-173.22"/>
<polygon fill="black" stroke="black" points="471.07,-169.93 463.05,-176.85 473.64,-176.44 471.07,-169.93"/>
<text text-anchor="middle" x="528.54" y="-164.11" font-family="Times,serif" font-size="14.00">c</text>
</g>
<!-- I8&#45;&gt;I0 -->
<g id="edge83" class="edge">
<title>I8-&gt;I0</title>
<path fill="none" stroke="black" d="M613.92,-422.95C607.44,-464.75 587.23,-549 529.54,-549 270.34,-549 270.34,-549 270.34,-549 216.1,-549 198.97,-471.93 193.6,-427.55"/>
<polygon fill="black" stroke="black" points="197.09,-427.33 192.56,-417.76 190.13,-428.07 197.09,-427.33"/>
<text text-anchor="middle" x="397.94" y="-553.2" font-family="Times,serif" font-size="14.00">b,c</text>
</g>
<!-- I8&#45;&gt;I1 -->
<g id="edge82" class="edge">
<title>I8-&gt;I1</title>
<path fill="none" stroke="black" d="M596.82,-389.28C584.11,-382.66 567.15,-374.27 551.62,-368 446.36,-325.51 413.56,-332.79 308.42,-290 305.22,-288.7 301.91,-287.23 298.65,-285.7"/>
<polygon fill="black" stroke="black" points="300.5,-282.71 289.98,-281.45 297.42,-288.99 300.5,-282.71"/>
<text text-anchor="middle" x="443.38" y="-341.77" font-family="Times,serif" font-size="14.00">a</text>
</g>
<!-- I9&#45;&gt;I0 -->
<g id="edge85" class="edge">
<title>I9-&gt;I0</title>
<path fill="none" stroke="black" d="M606.92,-317.64C589.07,-355.25 552.94,-431.16 551.62,-432 439.32,-503.4 384.24,-443.05 252.26,-426 241.1,-424.56 237.7,-426.2 227.26,-422 223,-420.29 218.76,-418 214.75,-415.5"/>
<polygon fill="black" stroke="black" points="216.87,-412.72 206.65,-409.93 212.9,-418.48 216.87,-412.72"/>
<text text-anchor="middle" x="397.94" y="-465.63" font-family="Times,serif" font-size="14.00">b,c</text>
</g>
<!-- I9&#45;&gt;I1 -->
<g id="edge84" class="edge">
<title>I9-&gt;I1</title>
<path fill="none" stroke="black" d="M597.64,-284.73C585.11,-277.41 568.05,-268.82 551.62,-265 462.4,-244.25 352.82,-257.93 301.48,-266.53"/>
<polygon fill="black" stroke="black" points="301.04,-263.05 291.79,-268.22 302.24,-269.95 301.04,-263.05"/>
<text text-anchor="middle" x="443.38" y="-258.53" font-family="Times,serif" font-size="14.00">a</text>
</g>
<!-- 1 -->
<g id="node13" class="node">
<title>1</title>
<ellipse fill="none" stroke="black" cx="271.34" cy="-707" rx="18" ry="18"/>
<text text-anchor="middle" x="271.34" y="-702.8" font-family="Times,serif" font-size="14.00">1</text>
</g>
<!-- 0&#45;&gt;1 -->
<g id="edge4" class="edge">
<title>0-&gt;1</title>
<path fill="none" stroke="black" d="M190.58,-768.82C190.8,-741.75 195.74,-691.56 227.26,-668.2 237.43,-660.66 248,-669.9 256.13,-681.24"/>
<polygon fill="black" stroke="black" points="253.18,-683.12 261.51,-689.67 259.08,-679.36 253.18,-683.12"/>
<text text-anchor="middle" x="230.76" y="-672.4" font-family="Times,serif" font-size="14.00">a</text>
</g>
<!-- 2 -->
<g id="node14" class="node">
<title>2</title>
<ellipse fill="none" stroke="black" cx="271.34" cy="-767" rx="18" ry="18"/>
<text text-anchor="middle" x="271.34" y="-762.8" font-family="Times,serif" font-size="14.00">2</text>
</g>
<!-- 0&#45;&gt;2 -->
<g id="edge5" class="edge">
<title>0-&gt;2</title>
<path fill="none" stroke="black" d="M207.96,-782.76C218.04,-780.21 231.11,-776.91 242.67,-773.99"/>
<polygon fill="black" stroke="black" points="243.27,-777.45 252.11,-771.61 241.55,-770.66 243.27,-777.45"/>
<text text-anchor="middle" x="230.76" y="-781.8" font-family="Times,serif" font-size="14.00">b</text>
</g>
<!-- 5 -->
<g id="node15" class="node">
<title>5</title>
<ellipse fill="none" stroke="black" cx="443.38" cy="-899" rx="18" ry="18"/>
<text text-anchor="middle" x="443.38" y="-894.8" font-family="Times,serif" font-size="14.00">5</text>
</g>
<!-- 0&#45;&gt;5 -->
<g id="edge6" class="edge">
<title>0-&gt;5</title>
<path fill="none" stroke="black" d="M196.3,-804.38C201.62,-819.3 211.41,-840.21 227.26,-852 283.47,-893.82 369.45,-899.85 413.76,-899.9"/>
<polygon fill="black" stroke="black" points="413.62,-903.4 423.59,-899.8 413.55,-896.4 413.62,-903.4"/>
<text text-anchor="middle" x="311.92" y="-893.69" font-family="Times,serif" font-size="14.00">b</text>
</g>
<!-- 10 -->
<g id="node16" class="node">
<title>10</title>
<ellipse fill="none" stroke="black" cx="704.47" cy="-1087" rx="20.69" ry="20.69"/>
<text text-anchor="middle" x="704.47" y="-1082.8" font-family="Times,serif" font-size="14.00">10</text>
</g>
<!-- 0&#45;&gt;10 -->
<g id="edge7" class="edge">
<title>0-&gt;10</title>
<path fill="none" stroke="black" d="M191.83,-805.25C194.71,-882.42 207.04,-1179.67 227.26,-1216 238.86,-1236.84 246.49,-1248 270.34,-1248 270.34,-1248 270.34,-1248 484.96,-1248 577.01,-1248 602.56,-1213.91 665.78,-1147 676.46,-1135.7 675.51,-1130.17 683.78,-1117 684.53,-1115.81 685.29,-1114.6 686.07,-1113.38"/>
<polygon fill="black" stroke="black" points="688.79,-1115.62 691.28,-1105.33 682.91,-1111.82 688.79,-1115.62"/>
<text text-anchor="middle" x="443.38" y="-1252.2" font-family="Times,serif" font-size="14.00">b</text>
</g>
<!-- 11 -->
<g id="node17" class="node">
<title>11</title>
<ellipse fill="none" stroke="black" cx="873.25" cy="-1008" rx="20.69" ry="20.69"/>
<text text-anchor="middle" x="873.25" y="-1003.8" font-family="Times,serif" font-size="14.00">11</text>
</g>
<!-- 0&#45;&gt;11 -->
<g id="edge8" class="edge">
<title>0-&gt;11</title>
<path fill="none" stroke="black" d="M190.72,-805.37C189.19,-885.68 188.37,-1202 270.34,-1202 270.34,-1202 270.34,-1202 398.94,-1202 555.95,-1202 615.75,-1321.16 750.17,-1240 751.39,-1239.26 825.51,-1097.5 857.65,-1035.97"/>
<polygon fill="black" stroke="black" points="860.56,-1037.96 862.08,-1027.48 854.35,-1034.72 860.56,-1037.96"/>
<text text-anchor="middle" x="528.54" y="-1242.37" font-family="Times,serif" font-size="14.00">b</text>
</g>
<!-- 16 -->
<g id="node18" class="node">
<title>16</title>
<ellipse fill="none" stroke="black" cx="1040.45" cy="-767" rx="20.69" ry="20.69"/>
<text text-anchor="middle" x="1040.45" y="-762.8" font-family="Times,serif" font-size="14.00">16</text>
</g>
<!-- 0&#45;&gt;16 -->
<g id="edge9" class="edge">
<title>0-&gt;16</title>
<path fill="none" stroke="black" d="M194.26,-769.25C203.25,-720.3 231.31,-587 270.34,-587 270.34,-587 270.34,-587 916.05,-587 987.23,-587 1020.39,-683.94 1033,-735.54"/>
<polygon fill="black" stroke="black" points="1029.58,-736.27 1035.24,-745.23 1036.4,-734.7 1029.58,-736.27"/>
<text text-anchor="middle" x="617.7" y="-591.2" font-family="Times,serif" font-size="14.00">b</text>
</g>
<!-- 3 -->
<g id="node19" class="node">
<title>3</title>
<ellipse fill="none" stroke="black" cx="271.34" cy="-827" rx="18" ry="18"/>
<text text-anchor="middle" x="271.34" y="-822.8" font-family="Times,serif" font-size="14.00">3</text>
</g>
<!-- 0&#45;&gt;3 -->
<g id="edge10" class="edge">
<title>0-&gt;3</title>
<path fill="none" stroke="black" d="M206.82,-794.9C217.55,-800.33 232.05,-807.65 244.48,-813.93"/>
<polygon fill="black" stroke="black" points="242.88,-817.05 253.38,-818.43 246.03,-810.8 242.88,-817.05"/>
<text text-anchor="middle" x="230.76" y="-812.4" font-family="Times,serif" font-size="14.00">c</text>
</g>
<!-- I0&#45;&gt;I0 -->
<g id="edge60" class="edge">
<title>I0-&gt;I0</title>
<path fill="none" stroke="black" d="M182.93,-414.93C181.58,-424.9 183.99,-434.08 190.18,-434.08 193.85,-434.08 196.19,-430.84 197.2,-426.13"/>
<polygon fill="black" stroke="black" points="200.7,-426.51 197.39,-416.45 193.7,-426.38 200.7,-426.51"/>
<text text-anchor="middle" x="190.18" y="-438.28" font-family="Times,serif" font-size="14.00">b,c</text>
</g>
<!-- I0&#45;&gt;I1 -->
<g id="edge59" class="edge">
<title>I0-&gt;I1</title>
<path fill="none" stroke="black" d="M198.13,-379.38C204.65,-363.77 215.18,-340.66 227.26,-322.2 233.79,-312.21 242.12,-302.06 249.71,-293.53"/>
<polygon fill="black" stroke="black" points="252.05,-296.15 256.22,-286.41 246.89,-291.43 252.05,-296.15"/>
<text text-anchor="middle" x="230.76" y="-326.4" font-family="Times,serif" font-size="14.00">a</text>
</g>
<!-- 1&#45;&gt;0 -->
<g id="edge11" class="edge">
<title>1-&gt;0</title>
<path fill="none" stroke="black" d="M254.46,-714.51C245.79,-719.11 235.23,-725.58 227.26,-733.2 218.78,-741.31 211.23,-751.74 205.24,-761.25"/>
<polygon fill="black" stroke="black" points="202.29,-759.38 200.18,-769.76 208.3,-762.96 202.29,-759.38"/>
<text text-anchor="middle" x="230.76" y="-737.4" font-family="Times,serif" font-size="14.00">a</text>
</g>
<!-- 4 -->
<g id="node20" class="node">
<title>4</title>
<ellipse fill="none" stroke="black" cx="352.5" cy="-767" rx="18" ry="18"/>
<text text-anchor="middle" x="352.5" y="-762.8" font-family="Times,serif" font-size="14.00">4</text>
</g>
<!-- 1&#45;&gt;4 -->
<g id="edge12" class="edge">
<title>1-&gt;4</title>
<path fill="none" stroke="black" d="M286.13,-717.45C297.86,-726.34 314.95,-739.3 328.71,-749.73"/>
<polygon fill="black" stroke="black" points="326.31,-752.3 336.4,-755.55 330.54,-746.72 326.31,-752.3"/>
<text text-anchor="middle" x="311.92" y="-743" font-family="Times,serif" font-size="14.00">a</text>
</g>
<!-- 2&#45;&gt;0 -->
<g id="edge13" class="edge">
<title>2-&gt;0</title>
<path fill="none" stroke="black" d="M255.36,-758.29C246.98,-754.55 236.4,-751.75 227.26,-755.2 221.2,-757.49 215.51,-761.3 210.51,-765.51"/>
<polygon fill="black" stroke="black" points="208.28,-762.81 203.43,-772.23 213.1,-767.88 208.28,-762.81"/>
<text text-anchor="middle" x="230.76" y="-759.4" font-family="Times,serif" font-size="14.00">b</text>
</g>
<!-- 2&#45;&gt;4 -->
<g id="edge14" class="edge">
<title>2-&gt;4</title>
<path fill="none" stroke="black" d="M289.52,-767C299.2,-767 311.55,-767 322.68,-767"/>
<polygon fill="black" stroke="black" points="322.57,-770.5 332.57,-767 322.57,-763.5 322.57,-770.5"/>
<text text-anchor="middle" x="311.92" y="-771.2" font-family="Times,serif" font-size="14.00">b</text>
</g>
<!-- 6 -->
<g id="node21" class="node">
<title>6</title>
<ellipse fill="none" stroke="black" cx="528.54" cy="-926" rx="18" ry="18"/>
<text text-anchor="middle" x="528.54" y="-921.8" font-family="Times,serif" font-size="14.00">6</text>
</g>
<!-- 5&#45;&gt;6 -->
<g id="edge21" class="edge">
<title>5-&gt;6</title>
<path fill="none" stroke="black" d="M460.81,-904.33C472.01,-907.97 487.11,-912.88 500.12,-917.1"/>
<polygon fill="black" stroke="black" points="498.82,-920.36 509.42,-920.12 500.99,-913.7 498.82,-920.36"/>
<text text-anchor="middle" x="483.96" y="-916.7" font-family="Times,serif" font-size="14.00">a</text>
</g>
<!-- 12 -->
<g id="node22" class="node">
<title>12</title>
<ellipse fill="none" stroke="black" cx="788.86" cy="-1048" rx="20.69" ry="20.69"/>
<text text-anchor="middle" x="788.86" y="-1043.8" font-family="Times,serif" font-size="14.00">12</text>
</g>
<!-- 5&#45;&gt;12 -->
<g id="edge22" class="edge">
<title>5-&gt;12</title>
<path fill="none" stroke="black" d="M447.33,-916.94C454.31,-952.38 475.31,-1028 527.54,-1028 527.54,-1028 527.54,-1028 705.47,-1028 723.48,-1028 743.08,-1032.57 758.65,-1037.33"/>
<polygon fill="black" stroke="black" points="757.16,-1040.53 767.75,-1040.31 759.34,-1033.88 757.16,-1040.53"/>
<text text-anchor="middle" x="617.7" y="-1032.2" font-family="Times,serif" font-size="14.00">a</text>
</g>
<!-- 15 -->
<g id="node23" class="node">
<title>15</title>
<ellipse fill="none" stroke="black" cx="956.85" cy="-902" rx="20.69" ry="20.69"/>
<text text-anchor="middle" x="956.85" y="-897.8" font-family="Times,serif" font-size="14.00">15</text>
</g>
<!-- 5&#45;&gt;15 -->
<g id="edge23" class="edge">
<title>5-&gt;15</title>
<path fill="none" stroke="black" d="M451.55,-882.6C457.92,-869.17 468.11,-850.15 480.46,-836 522.56,-787.71 533.98,-768.66 594.62,-748 646.55,-730.31 710.72,-695.6 834.55,-757 885.18,-782.1 922.58,-839.04 941.64,-873.62"/>
<polygon fill="black" stroke="black" points="938.45,-875.07 946.25,-882.24 944.62,-871.78 938.45,-875.07"/>
<text text-anchor="middle" x="704.47" y="-727.38" font-family="Times,serif" font-size="14.00">a</text>
</g>
<!-- 17 -->
<g id="node24" class="node">
<title>17</title>
<ellipse fill="none" stroke="black" cx="1124.05" cy="-767" rx="20.69" ry="20.69"/>
<text text-anchor="middle" x="1124.05" y="-762.8" font-family="Times,serif" font-size="14.00">17</text>
</g>
<!-- 5&#45;&gt;17 -->
<g id="edge24" class="edge">
<title>5-&gt;17</title>
<path fill="none" stroke="black" d="M447.76,-881.51C454.15,-852.96 470.61,-796.21 505.46,-763 536.27,-733.63 553.3,-738.24 594.62,-728 795.91,-678.13 861.76,-679.95 1061.14,-737 1073.03,-740.4 1085.42,-745.96 1095.97,-751.37"/>
<polygon fill="black" stroke="black" points="1094.01,-754.29 1104.48,-755.93 1097.32,-748.12 1094.01,-754.29"/>
<text text-anchor="middle" x="788.86" y="-698.92" font-family="Times,serif" font-size="14.00">a</text>
</g>
<!-- 8 -->
<g id="node25" class="node">
<title>8</title>
<ellipse fill="none" stroke="black" cx="528.54" cy="-872" rx="18" ry="18"/>
<text text-anchor="middle" x="528.54" y="-867.8" font-family="Times,serif" font-size="14.00">8</text>
</g>
<!-- 5&#45;&gt;8 -->
<g id="edge25" class="edge">
<title>5-&gt;8</title>
<path fill="none" stroke="black" d="M460.81,-893.67C472.01,-890.03 487.11,-885.12 500.12,-880.9"/>
<polygon fill="black" stroke="black" points="500.99,-884.3 509.42,-877.88 498.82,-877.64 500.99,-884.3"/>
<text text-anchor="middle" x="483.96" y="-891.32" font-family="Times,serif" font-size="14.00">b</text>
</g>
<!-- 13 -->
<g id="node26" class="node">
<title>13</title>
<ellipse fill="none" stroke="black" cx="1040.45" cy="-1099" rx="20.69" ry="20.69"/>
<text text-anchor="middle" x="1040.45" y="-1094.8" font-family="Times,serif" font-size="14.00">13</text>
</g>
<!-- 5&#45;&gt;13 -->
<g id="edge26" class="edge">
<title>5-&gt;13</title>
<path fill="none" stroke="black" d="M445.28,-917.39C448.05,-952.61 459.36,-1029.54 505.46,-1069 627.96,-1173.86 668.83,-1207.55 827.55,-1236 844.66,-1239.07 818.2,-1259.64 893.94,-1235 925.79,-1224.64 952.29,-1184.54 1001.76,-1136 1006.7,-1131.15 1012.02,-1125.93 1017.05,-1120.99"/>
<polygon fill="black" stroke="black" points="1019.37,-1123.62 1024.05,-1114.12 1014.46,-1118.62 1019.37,-1123.62"/>
<text text-anchor="middle" x="746.67" y="-1223.33" font-family="Times,serif" font-size="14.00">b</text>
</g>
<!-- 14 -->
<g id="node27" class="node">
<title>14</title>
<ellipse fill="none" stroke="black" cx="956.85" cy="-1099" rx="20.69" ry="20.69"/>
<text text-anchor="middle" x="956.85" y="-1094.8" font-family="Times,serif" font-size="14.00">14</text>
</g>
<!-- 5&#45;&gt;14 -->
<g id="edge27" class="edge">
<title>5-&gt;14</title>
<path fill="none" stroke="black" d="M446.31,-916.84C449.73,-941.78 458.65,-987.64 480.46,-1020 510.08,-1063.97 582.27,-1072.54 640.78,-1098 761.5,-1150.54 810.24,-1277.42 918.15,-1202 930.31,-1193.51 941.63,-1157.22 948.63,-1130.11"/>
<polygon fill="black" stroke="black" points="951.97,-1131.17 950.99,-1120.62 945.17,-1129.48 951.97,-1131.17"/>
<text text-anchor="middle" x="704.47" y="-1155.14" font-family="Times,serif" font-size="14.00">c</text>
</g>
<!-- 10&#45;&gt;12 -->
<g id="edge38" class="edge">
<title>10-&gt;12</title>
<path fill="none" stroke="black" d="M722.89,-1076.83C729.19,-1073.3 736.42,-1069.42 743.17,-1066.2 748.1,-1063.84 753.43,-1061.5 758.63,-1059.33"/>
<polygon fill="black" stroke="black" points="759.6,-1062.71 767.54,-1055.7 756.96,-1056.23 759.6,-1062.71"/>
<text text-anchor="middle" x="746.67" y="-1070.4" font-family="Times,serif" font-size="14.00">a</text>
</g>
<!-- 10&#45;&gt;15 -->
<g id="edge39" class="edge">
<title>10-&gt;15</title>
<path fill="none" stroke="black" d="M718.04,-1070.74C729.96,-1055.95 748.87,-1034.04 768.17,-1018 820.27,-974.7 889.97,-935.86 928.07,-915.99"/>
<polygon fill="black" stroke="black" points="929.31,-919.28 936.6,-911.59 926.11,-913.06 929.31,-919.28"/>
<text text-anchor="middle" x="831.05" y="-978.27" font-family="Times,serif" font-size="14.00">a</text>
</g>
<!-- 10&#45;&gt;17 -->
<g id="edge40" class="edge">
<title>10-&gt;17</title>
<path fill="none" stroke="black" d="M720.24,-1100.55C726.95,-1106.32 735.17,-1112.9 743.17,-1118 753.56,-1124.63 756.71,-1125.44 768.17,-1130 889.16,-1178.13 970.52,-1222.5 1061.14,-1129 1106.52,-1082.19 1118.9,-879.16 1122.05,-799.37"/>
<polygon fill="black" stroke="black" points="1125.54,-799.73 1122.41,-789.61 1118.54,-799.47 1125.54,-799.73"/>
<text text-anchor="middle" x="915.05" y="-1185.71" font-family="Times,serif" font-size="14.00">a</text>
</g>
<!-- 10&#45;&gt;13 -->
<g id="edge41" class="edge">
<title>10-&gt;13</title>
<path fill="none" stroke="black" d="M723.53,-1095.82C729.64,-1098.49 736.58,-1101.19 743.17,-1103 844.24,-1130.72 874.39,-1147.55 977.54,-1129 989.8,-1126.8 1002.34,-1121.41 1012.9,-1115.8"/>
<polygon fill="black" stroke="black" points="1014.43,-1118.96 1021.4,-1110.98 1010.97,-1112.87 1014.43,-1118.96"/>
<text text-anchor="middle" x="873.25" y="-1140.85" font-family="Times,serif" font-size="14.00">b</text>
</g>
<!-- 10&#45;&gt;14 -->
<g id="edge42" class="edge">
<title>10-&gt;14</title>
<path fill="none" stroke="black" d="M725.54,-1087.96C769.03,-1090.05 872.27,-1094.99 924.47,-1097.5"/>
<polygon fill="black" stroke="black" points="924.02,-1100.98 934.17,-1097.96 924.35,-1093.99 924.02,-1100.98"/>
<text text-anchor="middle" x="831.05" y="-1097.34" font-family="Times,serif" font-size="14.00">c</text>
</g>
<!-- 11&#45;&gt;12 -->
<g id="edge43" class="edge">
<title>11-&gt;12</title>
<path fill="none" stroke="black" d="M854.12,-1016.8C843.46,-1021.98 829.75,-1028.63 817.74,-1034.46"/>
<polygon fill="black" stroke="black" points="816.57,-1031.14 809.1,-1038.66 819.62,-1037.44 816.57,-1031.14"/>
<text text-anchor="middle" x="831.05" y="-1033.4" font-family="Times,serif" font-size="14.00">a</text>
</g>
<!-- 11&#45;&gt;15 -->
<g id="edge44" class="edge">
<title>11-&gt;15</title>
<path fill="none" stroke="black" d="M889.45,-994.92C898.38,-986.81 909.57,-975.89 918.15,-965 926.61,-954.27 934.59,-941.48 941.02,-930.24"/>
<polygon fill="black" stroke="black" points="943.92,-932.22 945.71,-921.77 937.8,-928.82 943.92,-932.22"/>
<text text-anchor="middle" x="915.05" y="-975.62" font-family="Times,serif" font-size="14.00">a</text>
</g>
<!-- 11&#45;&gt;13 -->
<g id="edge45" class="edge">
<title>11-&gt;13</title>
<path fill="none" stroke="black" d="M893.78,-1002.83C915.24,-998.19 950.26,-993.71 977.54,-1005.2 1003.97,-1016.33 1020.45,-1045.59 1029.7,-1068.5"/>
<polygon fill="black" stroke="black" points="1026.37,-1069.57 1033.15,-1077.71 1032.92,-1067.12 1026.37,-1069.57"/>
<text text-anchor="middle" x="956.85" y="-1009.4" font-family="Times,serif" font-size="14.00">b</text>
</g>
<!-- 11&#45;&gt;14 -->
<g id="edge46" class="edge">
<title>11-&gt;14</title>
<path fill="none" stroke="black" d="M886.4,-1024.02C893.59,-1033.27 903.01,-1045.02 911.94,-1055 918.67,-1062.51 926.33,-1070.4 933.35,-1077.39"/>
<polygon fill="black" stroke="black" points="930.54,-1079.54 940.13,-1084.05 935.45,-1074.55 930.54,-1079.54"/>
<text text-anchor="middle" x="915.05" y="-1065.43" font-family="Times,serif" font-size="14.00">c</text>
</g>
<!-- 16&#45;&gt;17 -->
<g id="edge53" class="edge">
<title>16-&gt;17</title>
<path fill="none" stroke="black" d="M1061.62,-767C1070.71,-767 1081.66,-767 1091.77,-767"/>
<polygon fill="black" stroke="black" points="1091.6,-770.5 1101.6,-767 1091.6,-763.5 1091.6,-770.5"/>
<text text-anchor="middle" x="1082.25" y="-771.2" font-family="Times,serif" font-size="14.00">a</text>
</g>
<!-- 3&#45;&gt;0 -->
<g id="edge15" class="edge">
<title>3-&gt;0</title>
<path fill="none" stroke="black" d="M253.69,-831.27C245.4,-832.54 235.42,-832.75 227.26,-829 219.09,-825.25 212.08,-818.64 206.46,-811.75"/>
<polygon fill="black" stroke="black" points="209.29,-809.7 200.59,-803.66 203.63,-813.81 209.29,-809.7"/>
<text text-anchor="middle" x="230.76" y="-835.35" font-family="Times,serif" font-size="14.00">c</text>
</g>
<!-- 3&#45;&gt;4 -->
<g id="edge16" class="edge">
<title>3-&gt;4</title>
<path fill="none" stroke="black" d="M286.13,-816.55C297.86,-807.66 314.95,-794.7 328.71,-784.27"/>
<polygon fill="black" stroke="black" points="330.54,-787.28 336.4,-778.45 326.31,-781.7 330.54,-787.28"/>
<text text-anchor="middle" x="311.92" y="-803" font-family="Times,serif" font-size="14.00">c</text>
</g>
<!-- 4&#45;&gt;5 -->
<g id="edge17" class="edge">
<title>4-&gt;5</title>
<path fill="none" stroke="black" d="M363.35,-781.63C378.57,-804.23 407.94,-847.85 426.27,-875.08"/>
<polygon fill="black" stroke="black" points="423.15,-876.71 431.64,-883.05 428.95,-872.8 423.15,-876.71"/>
<text text-anchor="middle" x="397.94" y="-849.02" font-family="Times,serif" font-size="14.00">b</text>
</g>
<!-- 4&#45;&gt;10 -->
<g id="edge18" class="edge">
<title>4-&gt;10</title>
<path fill="none" stroke="black" d="M353.77,-785.22C355.39,-861.33 366.52,-1150 442.38,-1150 442.38,-1150 442.38,-1150 618.7,-1150 645.24,-1150 668.88,-1129.85 684.4,-1112.35"/>
<polygon fill="black" stroke="black" points="687.05,-1114.63 690.78,-1104.71 681.68,-1110.14 687.05,-1114.63"/>
<text text-anchor="middle" x="528.54" y="-1154.2" font-family="Times,serif" font-size="14.00">b</text>
</g>
<!-- 4&#45;&gt;11 -->
<g id="edge19" class="edge">
<title>4-&gt;11</title>
<path fill="none" stroke="black" d="M364.85,-753.86C386.96,-729.95 437.96,-682.87 487.46,-695 529.7,-705.35 807.06,-842.29 834.55,-876 857.85,-904.57 866.76,-946.81 870.16,-975.77"/>
<polygon fill="black" stroke="black" points="866.64,-975.8 871.12,-985.4 873.61,-975.1 866.64,-975.8"/>
<text text-anchor="middle" x="617.7" y="-767.74" font-family="Times,serif" font-size="14.00">b</text>
</g>
<!-- 4&#45;&gt;16 -->
<g id="edge20" class="edge">
<title>4-&gt;16</title>
<path fill="none" stroke="black" d="M356.66,-749.21C364.28,-712.76 387.24,-633 442.38,-633 442.38,-633 442.38,-633 789.86,-633 883.33,-633 975.58,-706.86 1016.9,-744.91"/>
<polygon fill="black" stroke="black" points="1014.37,-747.33 1024.05,-751.62 1019.16,-742.23 1014.37,-747.33"/>
<text text-anchor="middle" x="704.47" y="-637.2" font-family="Times,serif" font-size="14.00">b</text>
</g>
<!-- 7 -->
<g id="node28" class="node">
<title>7</title>
<ellipse fill="none" stroke="black" cx="617.7" cy="-926" rx="18" ry="18"/>
<text text-anchor="middle" x="617.7" y="-921.8" font-family="Times,serif" font-size="14.00">7</text>
</g>
<!-- 6&#45;&gt;7 -->
<g id="edge28" class="edge">
<title>6-&gt;7</title>
<path fill="none" stroke="black" d="M546.76,-926C558.5,-926 574.33,-926 587.96,-926"/>
<polygon fill="black" stroke="black" points="587.7,-929.5 597.7,-926 587.7,-922.5 587.7,-929.5"/>
<text text-anchor="middle" x="573.12" y="-930.2" font-family="Times,serif" font-size="14.00">a</text>
</g>
<!-- 12&#45;&gt;11 -->
<g id="edge47" class="edge">
<title>12-&gt;11</title>
<path fill="none" stroke="black" d="M800.45,-1030.48C807,-1021.41 816.3,-1011.2 827.55,-1006.2 831.94,-1004.25 836.82,-1003.34 841.7,-1003.1"/>
<polygon fill="black" stroke="black" points="841.19,-1006.58 851.32,-1003.47 841.46,-999.58 841.19,-1006.58"/>
<text text-anchor="middle" x="831.05" y="-1010.4" font-family="Times,serif" font-size="14.00">b</text>
</g>
<!-- 15&#45;&gt;10 -->
<g id="edge50" class="edge">
<title>15-&gt;10</title>
<path fill="none" stroke="black" d="M936.1,-905.46C898.56,-913.01 816.36,-934.33 768.17,-983 746.62,-1004.76 729.34,-1035.3 718.43,-1057.66"/>
<polygon fill="black" stroke="black" points="715.34,-1056 714.23,-1066.53 721.67,-1058.99 715.34,-1056"/>
<text text-anchor="middle" x="831.05" y="-944.9" font-family="Times,serif" font-size="14.00">a</text>
</g>
<!-- 15&#45;&gt;11 -->
<g id="edge51" class="edge">
<title>15-&gt;11</title>
<path fill="none" stroke="black" d="M940.61,-914.77C931.66,-922.71 920.47,-933.42 911.94,-944.2 903.32,-955.09 895.27,-968.14 888.84,-979.59"/>
<polygon fill="black" stroke="black" points="885.85,-977.77 884.14,-988.23 892,-981.11 885.85,-977.77"/>
<text text-anchor="middle" x="915.05" y="-948.4" font-family="Times,serif" font-size="14.00">a</text>
</g>
<!-- 15&#45;&gt;16 -->
<g id="edge52" class="edge">
<title>15-&gt;16</title>
<path fill="none" stroke="black" d="M968.52,-884.35C982.38,-861.41 1006.74,-821.11 1022.99,-794.23"/>
<polygon fill="black" stroke="black" points="1025.82,-796.32 1028,-785.95 1019.83,-792.7 1025.82,-796.32"/>
<text text-anchor="middle" x="998.65" y="-842.75" font-family="Times,serif" font-size="14.00">a</text>
</g>
<!-- 18 -->
<g id="node30" class="node">
<title>18</title>
<ellipse fill="none" stroke="black" cx="1208.44" cy="-767" rx="20.69" ry="20.69"/>
<text text-anchor="middle" x="1208.44" y="-762.8" font-family="Times,serif" font-size="14.00">18</text>
</g>
<!-- 17&#45;&gt;18 -->
<g id="edge54" class="edge">
<title>17-&gt;18</title>
<path fill="none" stroke="black" d="M1144.99,-767C1154.33,-767 1165.69,-767 1176.13,-767"/>
<polygon fill="black" stroke="black" points="1175.88,-770.5 1185.88,-767 1175.88,-763.5 1175.88,-770.5"/>
<text text-anchor="middle" x="1166.24" y="-771.2" font-family="Times,serif" font-size="14.00">b</text>
</g>
<!-- 9 -->
<g id="node29" class="node">
<title>9</title>
<ellipse fill="none" stroke="black" cx="617.7" cy="-872" rx="18" ry="18"/>
<text text-anchor="middle" x="617.7" y="-867.8" font-family="Times,serif" font-size="14.00">9</text>
</g>
<!-- 8&#45;&gt;9 -->
<g id="edge33" class="edge">
<title>8-&gt;9</title>
<path fill="none" stroke="black" d="M546.76,-872C558.5,-872 574.33,-872 587.96,-872"/>
<polygon fill="black" stroke="black" points="587.7,-875.5 597.7,-872 587.7,-868.5 587.7,-875.5"/>
<text text-anchor="middle" x="573.12" y="-876.2" font-family="Times,serif" font-size="14.00">b</text>
</g>
<!-- 13&#45;&gt;11 -->
<g id="edge48" class="edge">
<title>13-&gt;11</title>
<path fill="none" stroke="black" d="M1024.4,-1085.97C1012.3,-1075.91 994.55,-1062.07 977.54,-1052.2 953.8,-1038.42 924.95,-1026.44 903.78,-1018.44"/>
<polygon fill="black" stroke="black" points="905.2,-1015.23 894.61,-1015.05 902.77,-1021.8 905.2,-1015.23"/>
<text text-anchor="middle" x="956.85" y="-1056.4" font-family="Times,serif" font-size="14.00">c</text>
</g>
<!-- 14&#45;&gt;13 -->
<g id="edge49" class="edge">
<title>14-&gt;13</title>
<path fill="none" stroke="black" d="M978.02,-1099C987.11,-1099 998.06,-1099 1008.17,-1099"/>
<polygon fill="black" stroke="black" points="1008,-1102.5 1018,-1099 1008,-1095.5 1008,-1102.5"/>
<text text-anchor="middle" x="998.65" y="-1103.2" font-family="Times,serif" font-size="14.00">c</text>
</g>
<!-- 7&#45;&gt;5 -->
<g id="edge29" class="edge">
<title>7-&gt;5</title>
<path fill="none" stroke="black" d="M601.88,-934.89C594.49,-939.03 585.3,-943.74 576.62,-947 546.9,-958.15 535.41,-963.51 505.46,-953 488.53,-947.06 473.4,-933.78 462.43,-921.87"/>
<polygon fill="black" stroke="black" points="465.08,-919.58 455.88,-914.32 459.79,-924.17 465.08,-919.58"/>
<text text-anchor="middle" x="528.54" y="-962.86" font-family="Times,serif" font-size="14.00">a</text>
</g>
<!-- 7&#45;&gt;10 -->
<g id="edge30" class="edge">
<title>7-&gt;10</title>
<path fill="none" stroke="black" d="M626.98,-941.73C641.29,-968.91 670.83,-1025 688.72,-1058.98"/>
<polygon fill="black" stroke="black" points="685.41,-1060.2 693.16,-1067.42 691.6,-1056.94 685.41,-1060.2"/>
<text text-anchor="middle" x="662.28" y="-1015.53" font-family="Times,serif" font-size="14.00">a</text>
</g>
<!-- 7&#45;&gt;11 -->
<g id="edge31" class="edge">
<title>7-&gt;11</title>
<path fill="none" stroke="black" d="M635.8,-929.56C644.79,-931.54 655.94,-934.17 665.78,-937 729.74,-955.42 803.09,-981.97 842.86,-996.83"/>
<polygon fill="black" stroke="black" points="841.37,-1000.02 851.96,-1000.26 843.83,-993.46 841.37,-1000.02"/>
<text text-anchor="middle" x="746.67" y="-967.65" font-family="Times,serif" font-size="14.00">a</text>
</g>
<!-- 7&#45;&gt;16 -->
<g id="edge32" class="edge">
<title>7-&gt;16</title>
<path fill="none" stroke="black" d="M632.35,-915.38C657.75,-896.07 714.57,-855 768.17,-831 810.46,-812.07 933.82,-791.56 1001.76,-776 1004.06,-775.47 1006.44,-774.92 1008.84,-774.36"/>
<polygon fill="black" stroke="black" points="1009.5,-777.8 1018.43,-772.09 1007.89,-770.99 1009.5,-777.8"/>
<text text-anchor="middle" x="831.05" y="-817.08" font-family="Times,serif" font-size="14.00">a</text>
</g>
<!-- 9&#45;&gt;5 -->
<g id="edge34" class="edge">
<title>9-&gt;5</title>
<path fill="none" stroke="black" d="M603.83,-860.07C582.92,-842.2 540.37,-812.21 505.46,-828.2 485.17,-837.49 469.05,-857.22 458.48,-873.5"/>
<polygon fill="black" stroke="black" points="455.66,-871.41 453.42,-881.77 461.63,-875.07 455.66,-871.41"/>
<text text-anchor="middle" x="528.54" y="-832.4" font-family="Times,serif" font-size="14.00">b</text>
</g>
<!-- 9&#45;&gt;10 -->
<g id="edge35" class="edge">
<title>9-&gt;10</title>
<path fill="none" stroke="black" d="M630.73,-884.76C634.33,-889.05 638.03,-894.01 640.78,-899 669.15,-950.48 687.57,-1016.97 696.69,-1055.51"/>
<polygon fill="black" stroke="black" points="693.23,-1056.09 698.89,-1065.05 700.06,-1054.52 693.23,-1056.09"/>
<text text-anchor="middle" x="662.28" y="-957.47" font-family="Times,serif" font-size="14.00">b</text>
</g>
<!-- 9&#45;&gt;11 -->
<g id="edge36" class="edge">
<title>9-&gt;11</title>
<path fill="none" stroke="black" d="M636.04,-870.51C681.73,-866.97 804,-860.01 834.55,-884 862.08,-905.62 870.07,-946.75 872.11,-975.7"/>
<polygon fill="black" stroke="black" points="868.6,-975.56 872.57,-985.38 875.59,-975.22 868.6,-975.56"/>
<text text-anchor="middle" x="746.67" y="-871.35" font-family="Times,serif" font-size="14.00">b</text>
</g>
<!-- 9&#45;&gt;16 -->
<g id="edge37" class="edge">
<title>9-&gt;16</title>
<path fill="none" stroke="black" d="M626.42,-855.89C633.5,-842.29 644.96,-822.86 658.78,-809 668.1,-799.66 671.48,-797.77 683.78,-793 796.84,-749.14 945.11,-757.18 1008.52,-763.37"/>
<polygon fill="black" stroke="black" points="1007.87,-766.82 1018.18,-764.37 1008.6,-759.86 1007.87,-766.82"/>
<text text-anchor="middle" x="831.05" y="-766.09" font-family="Times,serif" font-size="14.00">b</text>
</g>
<!-- 19 -->
<g id="node31" class="node">
<title>19</title>
<ellipse fill="none" stroke="black" cx="1292.04" cy="-767" rx="20.69" ry="20.69"/>
<text text-anchor="middle" x="1292.04" y="-762.8" font-family="Times,serif" font-size="14.00">19</text>
</g>
<!-- 18&#45;&gt;19 -->
<g id="edge55" class="edge">
<title>18-&gt;19</title>
<path fill="none" stroke="black" d="M1229.61,-767C1238.7,-767 1249.64,-767 1259.76,-767"/>
<polygon fill="black" stroke="black" points="1259.58,-770.5 1269.58,-767 1259.58,-763.5 1259.58,-770.5"/>
<text text-anchor="middle" x="1250.24" y="-771.2" font-family="Times,serif" font-size="14.00">c</text>
</g>
<!-- 19&#45;&gt;20 -->
<g id="edge56" class="edge">
<title>19-&gt;20</title>
<path fill="none" stroke="black" d="M1311.47,-774.49C1326.47,-780.59 1348.03,-789.35 1365.98,-796.64"/>
<polygon fill="black" stroke="black" points="1364.61,-799.86 1375.19,-800.39 1367.25,-793.38 1364.61,-799.86"/>
<text text-anchor="middle" x="1343.94" y="-796.55" font-family="Times,serif" font-size="14.00">a,b,c</text>
</g>
<!-- 19&#45;&gt;21 -->
<g id="edge57" class="edge">
<title>19-&gt;21</title>
<path fill="none" stroke="black" d="M1312.64,-764.4C1338.34,-761.32 1384.82,-756.88 1424.55,-759.2 1434.83,-759.8 1445.97,-760.92 1456.14,-762.12"/>
<polygon fill="black" stroke="black" points="1455.67,-765.59 1466.03,-763.36 1456.54,-758.64 1455.67,-765.59"/>
<text text-anchor="middle" x="1399.85" y="-763.4" font-family="Times,serif" font-size="14.00">a,b,c</text>
</g>
<!-- I1&#45;&gt;I0 -->
<g id="edge63" class="edge">
<title>I1-&gt;I0</title>
<path fill="none" stroke="black" d="M261.95,-289.18C255.03,-302.95 244.68,-322.61 234.26,-339 226.73,-350.83 217.57,-363.39 209.63,-373.78"/>
<polygon fill="black" stroke="black" points="207.05,-371.39 203.69,-381.44 212.58,-375.68 207.05,-371.39"/>
<text text-anchor="middle" x="230.76" y="-353.06" font-family="Times,serif" font-size="14.00">c</text>
</g>
<!-- I1&#45;&gt;I1 -->
<g id="edge61" class="edge">
<title>I1-&gt;I1</title>
<path fill="none" stroke="black" d="M264.09,-289.93C262.74,-299.9 265.16,-309.08 271.34,-309.08 275.01,-309.08 277.35,-305.84 278.37,-301.13"/>
<polygon fill="black" stroke="black" points="281.86,-301.51 278.55,-291.45 274.86,-301.38 281.86,-301.51"/>
<text text-anchor="middle" x="271.34" y="-313.28" font-family="Times,serif" font-size="14.00">a</text>
</g>
<!-- I2 -->
<g id="node33" class="node">
<title>I2</title>
<ellipse fill="none" stroke="black" cx="352.5" cy="-186" rx="19.08" ry="19.08"/>
<text text-anchor="middle" x="352.5" y="-181.8" font-family="Times,serif" font-size="14.00">I2</text>
</g>
<!-- I1&#45;&gt;I2 -->
<g id="edge62" class="edge">
<title>I1-&gt;I2</title>
<path fill="none" stroke="black" d="M283.98,-257.07C290.87,-248.44 299.89,-237.49 308.42,-228.2 315.24,-220.77 323.02,-212.96 330.08,-206.1"/>
<polygon fill="black" stroke="black" points="332.05,-209.07 336.84,-199.62 327.2,-204.01 332.05,-209.07"/>
<text text-anchor="middle" x="311.92" y="-232.4" font-family="Times,serif" font-size="14.00">b</text>
</g>
<!-- I2&#45;&gt;I0 -->
<g id="edge65" class="edge">
<title>I2-&gt;I0</title>
<path fill="none" stroke="black" d="M333.06,-186.86C325.28,-187.65 316.22,-189.16 308.42,-192 280.74,-202.08 270.74,-204.26 252.26,-227.2 218.65,-268.92 202.69,-330.66 195.79,-367.07"/>
<polygon fill="black" stroke="black" points="192.43,-365.99 194.13,-376.45 199.32,-367.21 192.43,-365.99"/>
<text text-anchor="middle" x="271.34" y="-231.4" font-family="Times,serif" font-size="14.00">b</text>
</g>
<!-- I2&#45;&gt;I1 -->
<g id="edge64" class="edge">
<title>I2-&gt;I1</title>
<path fill="none" stroke="black" d="M333.15,-188.74C324.83,-190.76 315.34,-194.23 308.42,-200.2 295.46,-211.38 286.63,-228.34 280.95,-242.97"/>
<polygon fill="black" stroke="black" points="277.74,-241.55 277.71,-252.14 284.34,-243.88 277.74,-241.55"/>
<text text-anchor="middle" x="311.92" y="-204.4" font-family="Times,serif" font-size="14.00">a</text>
</g>
<!-- I2&#45;&gt;I3 -->
<g id="edge66" class="edge">
<title>I2-&gt;I3</title>
<path fill="none" stroke="black" d="M371.92,-185.59C383.71,-185.32 399.29,-184.97 412.79,-184.67"/>
<polygon fill="black" stroke="black" points="412.55,-188.17 422.47,-184.45 412.39,-181.17 412.55,-188.17"/>
<text text-anchor="middle" x="397.94" y="-189.38" font-family="Times,serif" font-size="14.00">c</text>
</g>
<!-- I3&#45;&gt;I4 -->
<g id="edge67" class="edge">
<title>I3-&gt;I4</title>
<path fill="none" stroke="black" d="M458.11,-171.12C470.22,-159.76 488.16,-142.93 502.77,-129.23"/>
<polygon fill="black" stroke="black" points="504.91,-132.02 509.81,-122.62 500.13,-126.91 504.91,-132.02"/>
<text text-anchor="middle" x="483.96" y="-153.87" font-family="Times,serif" font-size="14.00">a</text>
</g>
<!-- I3&#45;&gt;I5 -->
<g id="edge68" class="edge">
<title>I3-&gt;I5</title>
<path fill="none" stroke="black" d="M453.92,-200.19C456.84,-205.46 459.94,-211.4 462.46,-217 474.77,-244.46 501.54,-322.57 516.63,-367.36"/>
<polygon fill="black" stroke="black" points="513.3,-368.45 519.81,-376.81 519.94,-366.22 513.3,-368.45"/>
<text text-anchor="middle" x="483.96" y="-282.91" font-family="Times,serif" font-size="14.00">b</text>
</g>
<!-- I3&#45;&gt;I6 -->
<g id="edge69" class="edge">
<title>I3-&gt;I6</title>
<path fill="none" stroke="black" d="M455.59,-199.24C468.8,-217.19 491,-247.35 507.25,-269.43"/>
<polygon fill="black" stroke="black" points="504.38,-271.44 513.13,-277.42 510.02,-267.29 504.38,-271.44"/>
<text text-anchor="middle" x="483.96" y="-244.7" font-family="Times,serif" font-size="14.00">c</text>
</g>
</g>
</svg>