<svg xmlns="http://www.w3.org/2000/svg" xmlns:xlink="http://www.w3.org/1999/xlink" width="966pt" height="502pt" viewBox="0.00 0.00 966.47 501.90">
<g id="graph0" class="graph" transform="scale(1 1) rotate(0) translate(4 497.9)">
<title>LL1_approx</title>
<polygon fill="white" stroke="none" points="-4,4 -4,-497.9 962.47,-497.9 962.47,4 -4,4"/>
<!-- __start -->
<g id="node1" class="node">
<title>__start</title>
<ellipse fill="black" stroke="black" cx="1.8" cy="-311" rx="1.8" ry="1.8"/>
</g>
<!-- 0 -->
<g id="node2" class="node">
<title>0</title>
<ellipse fill="none" stroke="black" cx="58.6" cy="-311" rx="18" ry="18"/>
<text text-anchor="middle" x="58.6" y="-306.8" font-family="Times,serif" font-size="14.00">0</text>
</g>
<!-- __start&#45;&gt;0 -->
<g id="edge1" class="edge">
<title>__start-&gt;0</title>
<path fill="none" stroke="black" d="M3.75,-311C6.96,-311 17.8,-311 28.92,-311"/>
<polygon fill="black" stroke="black" points="28.79,-314.5 38.79,-311 28.78,-307.5 28.79,-314.5"/>
</g>
<!-- a1 -->
<g id="node7" class="node">
<title>a1</title>
<ellipse fill="none" stroke="black" cx="138.97" cy="-243" rx="20.15" ry="20.15"/>
<text text-anchor="middle" x="138.97" y="-238.8" font-family="Times,serif" font-size="14.00">a1</text>
</g>
<!-- 0&#45;&gt;a1 -->
<g id="edge2" class="edge">
<title>0-&gt;a1</title>
<path fill="none" stroke="black" d="M72.89,-299.46C84.28,-289.58 100.96,-275.11 114.58,-263.29"/>
<polygon fill="black" stroke="black" points="116.6,-266.18 121.86,-256.98 112.01,-260.89 116.6,-266.18"/>
<text text-anchor="middle" x="97.71" y="-283.24" font-family="Times,serif" font-size="14.00">a</text>
</g>
<!-- b3 -->
<g id="node8" class="node">
<title>b3</title>
<ellipse fill="none" stroke="black" cx="222.81" cy="-226" rx="20.69" ry="20.69"/>
<text text-anchor="middle" x="222.81" y="-221.8" font-family="Times,serif" font-size="14.00">b3</text>
</g>
<!-- 0&#45;&gt;b3 -->
<g id="edge3" class="edge">
<title>0-&gt;b3</title>
<path fill="none" stroke="black" d="M76.54,-314.45C97.26,-317.78 132.84,-320.55 159.12,-307 180.88,-295.77 197.38,-273.18 207.97,-254.7"/>
<polygon fill="black" stroke="black" points="210.99,-256.48 212.66,-246.02 204.83,-253.15 210.99,-256.48"/>
<text text-anchor="middle" x="138.97" y="-321.01" font-family="Times,serif" font-size="14.00">b</text>
</g>
<!-- c6 -->
<g id="node9" class="node">
<title>c6</title>
<ellipse fill="none" stroke="black" cx="305.87" cy="-382" rx="20.15" ry="20.15"/>
<text text-anchor="middle" x="305.87" y="-377.8" font-family="Times,serif" font-size="14.00">c6</text>
</g>
<!-- 0&#45;&gt;c6 -->
<g id="edge4" class="edge">
<title>0-&gt;c6</title>
<path fill="none" stroke="black" d="M61.6,-329.06C65.74,-362.69 76.37,-432.87 94.6,-448 145.58,-490.32 183.45,-482.97 243.5,-455 263.64,-445.62 279.52,-426.03 290.08,-409.5"/>
<polygon fill="black" stroke="black" points="293.03,-411.39 295.18,-401.02 287.03,-407.78 293.03,-411.39"/>
<text text-anchor="middle" x="180.62" y="-481.3" font-family="Times,serif" font-size="14.00">c</text>
</g>
<!-- c8 -->
<g id="node10" class="node">
<title>c8</title>
<ellipse fill="none" stroke="black" cx="388.38" cy="-292" rx="20.15" ry="20.15"/>
<text text-anchor="middle" x="388.38" y="-287.8" font-family="Times,serif" font-size="14.00">c8</text>
</g>
<!-- 0&#45;&gt;c8 -->
<g id="edge5" class="edge">
<title>0-&gt;c8</title>
<path fill="none" stroke="black" d="M62.47,-328.89C69.07,-363 88.72,-434 137.97,-434 137.97,-434 137.97,-434 306.87,-434 332.44,-434 361.97,-363.44 377.17,-321.8"/>
<polygon fill="black" stroke="black" points="380.39,-323.17 380.46,-312.58 373.8,-320.81 380.39,-323.17"/>
<text text-anchor="middle" x="222.81" y="-438.2" font-family="Times,serif" font-size="14.00">c</text>
</g>
<!-- a10 -->
<g id="node11" class="node">
<title>a10</title>
<ellipse fill="none" stroke="black" cx="475.73" cy="-74" rx="24.98" ry="24.98"/>
<text text-anchor="middle" x="475.73" y="-69.8" font-family="Times,serif" font-size="14.00">a10</text>
</g>
<!-- 0&#45;&gt;a10 -->
<g id="edge6" class="edge">
<title>0-&gt;a10</title>
<path fill="none" stroke="black" d="M61,-292.72C66.11,-232.62 86.21,-45 137.97,-45 137.97,-45 137.97,-45 389.38,-45 407.82,-45 427.36,-51.14 443.09,-57.77"/>
<polygon fill="black" stroke="black" points="441.37,-60.84 451.93,-61.75 444.24,-54.45 441.37,-60.84"/>
<text text-anchor="middle" x="264.61" y="-49.2" font-family="Times,serif" font-size="14.00">a</text>
</g>
<!-- c12 -->
<g id="node12" class="node">
<title>c12</title>
<ellipse fill="none" stroke="black" cx="567.9" cy="-162" rx="24.98" ry="24.98"/>
<text text-anchor="middle" x="567.9" y="-157.8" font-family="Times,serif" font-size="14.00">c12</text>
</g>
<!-- 0&#45;&gt;c12 -->
<g id="edge7" class="edge">
<title>0-&gt;c12</title>
<path fill="none" stroke="black" d="M60.24,-292.94C63.06,-226.56 77.13,0 137.97,0 137.97,0 137.97,0 476.73,0 533.97,0 555.2,-78.18 562.83,-125.92"/>
<polygon fill="black" stroke="black" points="559.32,-126.15 564.23,-135.54 566.25,-125.14 559.32,-126.15"/>
<text text-anchor="middle" x="305.87" y="-4.2" font-family="Times,serif" font-size="14.00">c</text>
</g>
<!-- a2 -->
<g id="node3" class="node">
<title>a2</title>
<ellipse fill="none" stroke="black" cx="841.94" cy="-270" rx="20.15" ry="20.15"/>
<ellipse fill="none" stroke="black" cx="841.94" cy="-270" rx="24.15" ry="24.15"/>
<text text-anchor="middle" x="841.94" y="-265.8" font-family="Times,serif" font-size="14.00">a2</text>
</g>
<!-- a2&#45;&gt;a2 -->
<g id="edge20" class="edge">
<title>a2-&gt;a2</title>
<path fill="none" stroke="black" d="M833.58,-292.98C832.79,-303.26 835.57,-312.15 841.94,-312.15 845.72,-312.15 848.23,-309.02 849.49,-304.32"/>
<polygon fill="black" stroke="black" points="852.97,-304.71 850.18,-294.49 845.99,-304.22 852.97,-304.71"/>
<text text-anchor="middle" x="841.94" y="-316.35" font-family="Times,serif" font-size="14.00">a</text>
</g>
<!-- b4 -->
<g id="node4" class="node">
<title>b4</title>
<ellipse fill="none" stroke="black" cx="933.78" cy="-277" rx="20.69" ry="20.69"/>
<ellipse fill="none" stroke="black" cx="933.78" cy="-277" rx="24.69" ry="24.69"/>
<text text-anchor="middle" x="933.78" y="-272.8" font-family="Times,serif" font-size="14.00">b4</text>
</g>
<!-- a2&#45;&gt;b4 -->
<g id="edge21" class="edge">
<title>a2-&gt;b4</title>
<path fill="none" stroke="black" d="M864.45,-260.47C872.75,-257.91 882.34,-256.32 891.09,-258.2 894.47,-258.93 897.91,-259.95 901.29,-261.15"/>
<polygon fill="black" stroke="black" points="899.76,-264.31 910.34,-264.86 902.41,-257.83 899.76,-264.31"/>
<text text-anchor="middle" x="887.59" y="-262.4" font-family="Times,serif" font-size="14.00">b</text>
</g>
<!-- b4&#45;&gt;a2 -->
<g id="edge22" class="edge">
<title>b4-&gt;a2</title>
<path fill="none" stroke="black" d="M908.98,-276.4C901.06,-276.1 892.18,-275.66 884.09,-275 881.88,-274.82 879.61,-274.61 877.33,-274.39"/>
<polygon fill="black" stroke="black" points="877.8,-270.92 867.48,-273.29 877.03,-277.87 877.8,-270.92"/>
<text text-anchor="middle" x="887.59" y="-279.68" font-family="Times,serif" font-size="14.00">a</text>
</g>
<!-- b4&#45;&gt;b4 -->
<g id="edge23" class="edge">
<title>b4-&gt;b4</title>
<path fill="none" stroke="black" d="M925.26,-300.28C924.44,-310.69 927.29,-319.69 933.78,-319.69 937.74,-319.69 940.34,-316.35 941.59,-311.38"/>
<polygon fill="black" stroke="black" points="945.05,-311.99 942.21,-301.79 938.07,-311.54 945.05,-311.99"/>
<text text-anchor="middle" x="933.78" y="-323.89" font-family="Times,serif" font-size="14.00">b</text>
</g>
<!-- c5 -->
<g id="node5" class="node">
<title>c5</title>
<ellipse fill="none" stroke="black" cx="751.42" cy="-226" rx="20.15" ry="20.15"/>
<ellipse fill="none" stroke="black" cx="751.42" cy="-226" rx="24.15" ry="24.15"/>
<text text-anchor="middle" x="751.42" y="-221.8" font-family="Times,serif" font-size="14.00">c5</text>
</g>
<!-- c5&#45;&gt;a2 -->
<g id="edge24" class="edge">
<title>c5-&gt;a2</title>
<path fill="none" stroke="black" d="M773.4,-236.43C784.23,-241.81 797.67,-248.49 809.7,-254.47"/>
<polygon fill="black" stroke="black" points="807.94,-257.5 818.45,-258.82 811.05,-251.24 807.94,-257.5"/>
<text text-anchor="middle" x="796.68" y="-253.52" font-family="Times,serif" font-size="14.00">a</text>
</g>
<!-- c5&#45;&gt;b4 -->
<g id="edge25" class="edge">
<title>c5-&gt;b4</title>
<path fill="none" stroke="black" d="M774.99,-219.76C798.51,-214.4 836.05,-209.14 866.09,-220.2 882.63,-226.29 897.86,-238.5 909.58,-250.05"/>
<polygon fill="black" stroke="black" points="906.95,-252.37 916.41,-257.15 912,-247.52 906.95,-252.37"/>
<text text-anchor="middle" x="841.94" y="-224.4" font-family="Times,serif" font-size="14.00">b</text>
</g>
<!-- c7 -->
<g id="node6" class="node">
<title>c7</title>
<ellipse fill="none" stroke="black" cx="567.9" cy="-354" rx="20.15" ry="20.15"/>
<ellipse fill="none" stroke="black" cx="567.9" cy="-354" rx="24.15" ry="24.15"/>
<text text-anchor="middle" x="567.9" y="-349.8" font-family="Times,serif" font-size="14.00">c7</text>
</g>
<!-- c7&#45;&gt;a2 -->
<g id="edge26" class="edge">
<title>c7-&gt;a2</title>
<path fill="none" stroke="black" d="M591.16,-347.13C638.89,-332.39 751.27,-297.69 807.57,-280.3"/>
<polygon fill="black" stroke="black" points="808.4,-283.71 816.92,-277.42 806.33,-277.02 808.4,-283.71"/>
<text text-anchor="middle" x="706.16" y="-316.2" font-family="Times,serif" font-size="14.00">a</text>
</g>
<!-- c7&#45;&gt;b4 -->
<g id="edge27" class="edge">
<title>c7-&gt;b4</title>
<path fill="none" stroke="black" d="M592.25,-355.2C610.45,-356.04 636.36,-357 659.08,-357 659.08,-357 659.08,-357 842.94,-357 873.82,-357 899,-330.31 914.77,-307.76"/>
<polygon fill="black" stroke="black" points="917.5,-309.97 920.1,-299.7 911.66,-306.11 917.5,-309.97"/>
<text text-anchor="middle" x="751.42" y="-361.2" font-family="Times,serif" font-size="14.00">b</text>
</g>
<!-- a1&#45;&gt;a1 -->
<g id="edge8" class="edge">
<title>a1-&gt;a1</title>
<path fill="none" stroke="black" d="M131.5,-262.24C130.35,-272.18 132.84,-281.15 138.97,-281.15 142.51,-281.15 144.83,-278.15 145.94,-273.7"/>
<polygon fill="black" stroke="black" points="149.44,-273.89 146.36,-263.75 142.44,-273.59 149.44,-273.89"/>
<text text-anchor="middle" x="138.97" y="-285.35" font-family="Times,serif" font-size="14.00">a</text>
</g>
<!-- a1&#45;&gt;b3 -->
<g id="edge9" class="edge">
<title>a1-&gt;b3</title>
<path fill="none" stroke="black" d="M158.95,-239.06C168.45,-237.08 180.19,-234.64 190.95,-232.41"/>
<polygon fill="black" stroke="black" points="191.51,-235.87 200.59,-230.41 190.09,-229.01 191.51,-235.87"/>
<text text-anchor="middle" x="180.62" y="-239.21" font-family="Times,serif" font-size="14.00">b</text>
</g>
<!-- a1&#45;&gt;c6 -->
<g id="edge10" class="edge">
<title>a1-&gt;c6</title>
<path fill="none" stroke="black" d="M144.9,-262.7C150.24,-280.44 160.31,-306.23 177.12,-323 204.47,-350.3 246.81,-366.39 275.16,-374.7"/>
<polygon fill="black" stroke="black" points="273.98,-378 284.55,-377.3 275.84,-371.26 273.98,-378"/>
<text text-anchor="middle" x="222.81" y="-367.81" font-family="Times,serif" font-size="14.00">c</text>
</g>
<!-- a1&#45;&gt;c8 -->
<g id="edge11" class="edge">
<title>a1-&gt;c8</title>
<path fill="none" stroke="black" d="M153.23,-257.13C164.88,-268.43 182.91,-283.44 202.12,-290 254.3,-307.83 319.69,-302.67 357.18,-297.32"/>
<polygon fill="black" stroke="black" points="357.48,-300.82 366.83,-295.84 356.41,-293.9 357.48,-300.82"/>
<text text-anchor="middle" x="264.61" y="-305.93" font-family="Times,serif" font-size="14.00">c</text>
</g>
<!-- a1&#45;&gt;a10 -->
<g id="edge12" class="edge">
<title>a1-&gt;a10</title>
<path fill="none" stroke="black" d="M141.56,-222.82C146.04,-181.47 162.62,-91 221.81,-91 221.81,-91 221.81,-91 389.38,-91 406.36,-91 424.87,-87.73 440.31,-84.05"/>
<polygon fill="black" stroke="black" points="441.14,-87.45 449.97,-81.58 439.41,-80.67 441.14,-87.45"/>
<text text-anchor="middle" x="305.87" y="-95.2" font-family="Times,serif" font-size="14.00">a</text>
</g>
<!-- a1&#45;&gt;c12 -->
<g id="edge13" class="edge">
<title>a1-&gt;c12</title>
<path fill="none" stroke="black" d="M153.2,-228.61C159.93,-221.82 168.5,-213.92 177.12,-208 214.23,-182.53 219.48,-160.14 344.02,-134.2 361.97,-130.46 473.81,-147.22 531.92,-156.37"/>
<polygon fill="black" stroke="black" points="531.2,-159.8 541.62,-157.91 532.29,-152.89 531.2,-159.8"/>
<text text-anchor="middle" x="347.13" y="-138.4" font-family="Times,serif" font-size="14.00">c</text>
</g>
<!-- b3&#45;&gt;a1 -->
<g id="edge14" class="edge">
<title>b3-&gt;a1</title>
<path fill="none" stroke="black" d="M204.25,-215.92C195.95,-212.43 185.95,-210.1 177.12,-213.2 171.84,-215.06 166.75,-218.01 162.13,-221.36"/>
<polygon fill="black" stroke="black" points="160.05,-218.54 154.54,-227.59 164.49,-223.95 160.05,-218.54"/>
<text text-anchor="middle" x="180.62" y="-217.4" font-family="Times,serif" font-size="14.00">a</text>
</g>
<!-- b3&#45;&gt;b3 -->
<g id="edge15" class="edge">
<title>b3-&gt;b3</title>
<path fill="none" stroke="black" d="M215.25,-245.51C214.08,-255.6 216.6,-264.69 222.81,-264.69 226.49,-264.69 228.88,-261.49 229.97,-256.77"/>
<polygon fill="black" stroke="black" points="233.45,-257.14 230.32,-247.02 226.46,-256.89 233.45,-257.14"/>
<text text-anchor="middle" x="222.81" y="-268.89" font-family="Times,serif" font-size="14.00">b</text>
</g>
<!-- b3&#45;&gt;c6 -->
<g id="edge16" class="edge">
<title>b3-&gt;c6</title>
<path fill="none" stroke="black" d="M229.31,-246.16C235.49,-267.15 246.64,-300.57 261.5,-327 267.76,-338.13 276.18,-349.38 283.94,-358.78"/>
<polygon fill="black" stroke="black" points="281.23,-361 290.39,-366.34 286.56,-356.46 281.23,-361"/>
<text text-anchor="middle" x="264.61" y="-340.95" font-family="Times,serif" font-size="14.00">c</text>
</g>
<!-- b3&#45;&gt;c8 -->
<g id="edge17" class="edge">
<title>b3-&gt;c8</title>
<path fill="none" stroke="black" d="M242.57,-233.57C271.07,-245.07 325.48,-267.02 358.88,-280.5"/>
<polygon fill="black" stroke="black" points="357.35,-283.66 367.93,-284.15 359.97,-277.16 357.35,-283.66"/>
<text text-anchor="middle" x="305.87" y="-270.84" font-family="Times,serif" font-size="14.00">c</text>
</g>
<!-- b3&#45;&gt;a10 -->
<g id="edge18" class="edge">
<title>b3-&gt;a10</title>
<path fill="none" stroke="black" d="M241.06,-215.91C247.48,-212.16 254.82,-207.88 261.5,-204 337.52,-159.84 359.22,-153.19 432.75,-105 437.25,-102.05 441.92,-98.8 446.44,-95.55"/>
<polygon fill="black" stroke="black" points="448.19,-98.61 454.18,-89.87 444.05,-92.96 448.19,-98.61"/>
<text text-anchor="middle" x="347.13" y="-162.04" font-family="Times,serif" font-size="14.00">a</text>
</g>
<!-- b3&#45;&gt;c12 -->
<g id="edge19" class="edge">
<title>b3-&gt;c12</title>
<path fill="none" stroke="black" d="M243.76,-223.79C292.35,-218.17 420.51,-201.91 524.92,-176 527.66,-175.32 530.48,-174.55 533.3,-173.72"/>
<polygon fill="black" stroke="black" points="534.06,-177.15 542.55,-170.82 531.97,-170.47 534.06,-177.15"/>
<text text-anchor="middle" x="388.38" y="-210.84" font-family="Times,serif" font-size="14.00">c</text>
</g>
<!-- c6&#45;&gt;c7 -->
<g id="edge35" class="edge">
<title>c6-&gt;c7</title>
<path fill="none" stroke="black" d="M324.1,-391.42C358.75,-409.04 438.83,-443.02 500.71,-418 518.82,-410.68 534.73,-395.76 546.41,-382.16"/>
<polygon fill="black" stroke="black" points="548.89,-384.65 552.49,-374.69 543.46,-380.23 548.89,-384.65"/>
<text text-anchor="middle" x="429.64" y="-429.95" font-family="Times,serif" font-size="14.00">c</text>
</g>
<!-- c6&#45;&gt;c8 -->
<g id="edge33" class="edge">
<title>c6-&gt;c8</title>
<path fill="none" stroke="black" d="M320.16,-367.14C332.75,-353.07 351.85,-331.72 366.47,-315.37"/>
<polygon fill="black" stroke="black" points="369,-317.8 373.06,-308.01 363.78,-313.13 369,-317.8"/>
<text text-anchor="middle" x="347.13" y="-343.9" font-family="Times,serif" font-size="14.00">c</text>
</g>
<!-- a9 -->
<g id="node13" class="node">
<title>a9</title>
<ellipse fill="none" stroke="black" cx="475.73" cy="-354" rx="20.15" ry="20.15"/>
<text text-anchor="middle" x="475.73" y="-349.8" font-family="Times,serif" font-size="14.00">a9</text>
</g>
<!-- c6&#45;&gt;a9 -->
<g id="edge34" class="edge">
<title>c6-&gt;a9</title>
<path fill="none" stroke="black" d="M326.12,-378.79C355.01,-373.97 409.84,-364.82 444.21,-359.09"/>
<polygon fill="black" stroke="black" points="444.66,-362.56 453.95,-357.47 443.51,-355.66 444.66,-362.56"/>
<text text-anchor="middle" x="388.38" y="-375.89" font-family="Times,serif" font-size="14.00">a</text>
</g>
<!-- c8&#45;&gt;c7 -->
<g id="edge32" class="edge">
<title>c8-&gt;c7</title>
<path fill="none" stroke="black" d="M408.98,-292.17C431.77,-292.96 470.18,-296.19 500.71,-308.2 514.73,-313.72 528.68,-322.71 540.13,-331.27"/>
<polygon fill="black" stroke="black" points="537.88,-333.96 547.92,-337.35 542.19,-328.44 537.88,-333.96"/>
<text text-anchor="middle" x="475.73" y="-312.4" font-family="Times,serif" font-size="14.00">c</text>
</g>
<!-- c8&#45;&gt;c8 -->
<g id="edge28" class="edge">
<title>c8-&gt;c8</title>
<path fill="none" stroke="black" d="M380.92,-311.24C379.77,-321.18 382.26,-330.15 388.38,-330.15 391.93,-330.15 394.25,-327.15 395.36,-322.7"/>
<polygon fill="black" stroke="black" points="398.86,-322.89 395.78,-312.75 391.86,-322.59 398.86,-322.89"/>
<text text-anchor="middle" x="388.38" y="-334.35" font-family="Times,serif" font-size="14.00">c</text>
</g>
<!-- c8&#45;&gt;a10 -->
<g id="edge29" class="edge">
<title>c8-&gt;a10</title>
<path fill="none" stroke="black" d="M396.66,-273.41C411.07,-236.62 443.39,-154.04 461.61,-107.52"/>
<polygon fill="black" stroke="black" points="464.76,-109.06 465.15,-98.47 458.24,-106.51 464.76,-109.06"/>
<text text-anchor="middle" x="429.64" y="-200.25" font-family="Times,serif" font-size="14.00">a</text>
</g>
<!-- c8&#45;&gt;c12 -->
<g id="edge30" class="edge">
<title>c8-&gt;c12</title>
<path fill="none" stroke="black" d="M407.39,-284.26C434.7,-271.98 487.35,-246.09 524.92,-214 532.6,-207.45 539.9,-199.34 546.2,-191.5"/>
<polygon fill="black" stroke="black" points="548.86,-193.79 552.18,-183.72 543.31,-189.52 548.86,-193.79"/>
<text text-anchor="middle" x="475.73" y="-266.22" font-family="Times,serif" font-size="14.00">c</text>
</g>
<!-- c8&#45;&gt;a9 -->
<g id="edge31" class="edge">
<title>c8-&gt;a9</title>
<path fill="none" stroke="black" d="M405.04,-303.37C417.59,-312.49 435.44,-325.46 449.94,-335.99"/>
<polygon fill="black" stroke="black" points="447.51,-338.55 457.66,-341.6 451.63,-332.89 447.51,-338.55"/>
<text text-anchor="middle" x="429.64" y="-327.2" font-family="Times,serif" font-size="14.00">a</text>
</g>
<!-- a10&#45;&gt;a10 -->
<g id="edge38" class="edge">
<title>a10-&gt;a10</title>
<path fill="none" stroke="black" d="M467.19,-97.87C466.49,-108.16 469.34,-116.98 475.73,-116.98 479.52,-116.98 482.07,-113.87 483.36,-109.19"/>
<polygon fill="black" stroke="black" points="486.84,-109.62 484.15,-99.38 479.86,-109.07 486.84,-109.62"/>
<text text-anchor="middle" x="475.73" y="-121.18" font-family="Times,serif" font-size="14.00">a</text>
</g>
<!-- a10&#45;&gt;c12 -->
<g id="edge39" class="edge">
<title>a10-&gt;c12</title>
<path fill="none" stroke="black" d="M494.12,-90.97C507.5,-104.03 526.21,-122.29 541.3,-137.02"/>
<polygon fill="black" stroke="black" points="538.58,-139.25 548.18,-143.73 543.47,-134.24 538.58,-139.25"/>
<text text-anchor="middle" x="521.82" y="-124.84" font-family="Times,serif" font-size="14.00">c</text>
</g>
<!-- c12&#45;&gt;c5 -->
<g id="edge41" class="edge">
<title>c12-&gt;c5</title>
<path fill="none" stroke="black" d="M587.18,-178.59C599.74,-189.04 617.31,-201.86 635.1,-209 660.84,-219.34 692.09,-223.48 715.56,-225.1"/>
<polygon fill="black" stroke="black" points="715.37,-228.59 725.54,-225.65 715.75,-221.6 715.37,-228.59"/>
<text text-anchor="middle" x="660.08" y="-225.93" font-family="Times,serif" font-size="14.00">c</text>
</g>
<!-- a11 -->
<g id="node14" class="node">
<title>a11</title>
<ellipse fill="none" stroke="black" cx="660.08" cy="-140" rx="24.98" ry="24.98"/>
<text text-anchor="middle" x="660.08" y="-135.8" font-family="Times,serif" font-size="14.00">a11</text>
</g>
<!-- c12&#45;&gt;a11 -->
<g id="edge40" class="edge">
<title>c12-&gt;a11</title>
<path fill="none" stroke="black" d="M592.59,-156.22C602.33,-153.85 613.79,-151.05 624.44,-148.45"/>
<polygon fill="black" stroke="black" points="625.19,-151.87 634.07,-146.1 623.53,-145.07 625.19,-151.87"/>
<text text-anchor="middle" x="613.99" y="-155.86" font-family="Times,serif" font-size="14.00">a</text>
</g>
<!-- a9&#45;&gt;c7 -->
<g id="edge37" class="edge">
<title>a9-&gt;c7</title>
<path fill="none" stroke="black" d="M496.3,-354C506.82,-354 520.1,-354 532.3,-354"/>
<polygon fill="black" stroke="black" points="532.02,-357.5 542.02,-354 532.02,-350.5 532.02,-357.5"/>
<text text-anchor="middle" x="521.82" y="-358.2" font-family="Times,serif" font-size="14.00">c</text>
</g>
<!-- a9&#45;&gt;a9 -->
<g id="edge36" class="edge">
<title>a9-&gt;a9</title>
<path fill="none" stroke="black" d="M467.44,-372.84C466.04,-382.95 468.8,-392.15 475.73,-392.15 479.84,-392.15 482.49,-388.91 483.67,-384.16"/>
<polygon fill="black" stroke="black" points="487.16,-384.46 483.97,-374.36 480.16,-384.24 487.16,-384.46"/>
<text text-anchor="middle" x="475.73" y="-396.35" font-family="Times,serif" font-size="14.00">a</text>
</g>
<!-- a11&#45;&gt;c5 -->
<g id="edge43" class="edge">
<title>a11-&gt;c5</title>
<path fill="none" stroke="black" d="M678.73,-156.99C691.99,-169.76 710.35,-187.42 725.16,-201.69"/>
<polygon fill="black" stroke="black" points="722.69,-204.17 732.32,-208.58 727.54,-199.12 722.69,-204.17"/>
<text text-anchor="middle" x="706.16" y="-189.78" font-family="Times,serif" font-size="14.00">c</text>
</g>
<!-- a11&#45;&gt;a11 -->
<g id="edge42" class="edge">
<title>a11-&gt;a11</title>
<path fill="none" stroke="black" d="M651.54,-163.87C650.84,-174.16 653.68,-182.98 660.08,-182.98 663.87,-182.98 666.42,-179.87 667.71,-175.19"/>
<polygon fill="black" stroke="black" points="671.19,-175.62 668.49,-165.38 664.21,-175.07 671.19,-175.62"/>
<text text-anchor="middle" x="660.08" y="-187.18" font-family="Times,serif" font-size="14.00">a</text>
</g>
</g>
</svg>