<svg xmlns="http://www.w3.org/2000/svg" xmlns:xlink="http://www.w3.org/1999/xlink" width="560pt" height="197pt" viewBox="0.00 0.00 559.64 197.40">
<g id="graph0" class="graph" transform="scale(1 1) rotate(0) translate(4 193.4)">
<title>DFA_MIN_TABLE</title>
<polygon fill="white" stroke="none" points="-4,4 -4,-193.4 555.64,-193.4 555.64,4 -4,4"/>
<!-- __start -->
<g id="node1" class="node">
<title>__start</title>
</g>
<!-- 0 -->
<g id="node2" class="node">
<title>0</title>
<ellipse fill="none" stroke="black" cx="109" cy="-22" rx="18" ry="18"/>
<text text-anchor="middle" x="109" y="-17.8" font-family="Times,serif" font-size="14.00">0</text>
</g>
<!-- __start&#45;&gt;0 -->
<g id="edge1" class="edge">
<title>__start-&gt;0</title>
<path fill="none" stroke="black" d="M53.75,-22C61.85,-22 70.85,-22 79.16,-22"/>
<polygon fill="black" stroke="black" points="79.12,-25.5 89.12,-22 79.12,-18.5 79.12,-25.5"/>
</g>
<!-- 0&#45;&gt;0 -->
<g id="edge2" class="edge">
<title>0-&gt;0</title>
<path fill="none" stroke="black" d="M105.7,-40.15C105.19,-49.54 106.29,-58 109,-58 110.48,-58 111.48,-55.47 112,-51.64"/>
<polygon fill="black" stroke="black" points="115.5,-51.75 112.26,-41.67 108.5,-51.57 115.5,-51.75"/>
<text text-anchor="middle" x="109" y="-62.2" font-family="Times,serif" font-size="14.00">a</text>
</g>
<!-- 0&#45;&gt;0 -->
<g id="edge3" class="edge">
<title>0-&gt;0</title>
<path fill="none" stroke="black" d="M103.61,-39.42C100.54,-56.79 102.33,-76 109,-76 114.26,-76 116.49,-64.04 115.68,-50.46"/>
<polygon fill="black" stroke="black" points="119.21,-50.45 114.57,-40.92 112.25,-51.26 119.21,-50.45"/>
<text text-anchor="middle" x="109" y="-80.2" font-family="Times,serif" font-size="14.00">b</text>
</g>
<!-- 1 -->
<g id="node3" class="node">
<title>1</title>
<ellipse fill="none" stroke="black" cx="191.21" cy="-22" rx="18" ry="18"/>
<ellipse fill="none" stroke="black" cx="191.21" cy="-22" rx="22" ry="22"/>
<text text-anchor="middle" x="191.21" y="-17.8" font-family="Times,serif" font-size="14.00">1</text>
</g>
<!-- 0&#45;&gt;1 -->
<g id="edge4" class="edge">
<title>0-&gt;1</title>
<path fill="none" stroke="black" d="M127.41,-22C136.24,-22 147.27,-22 157.62,-22"/>
<polygon fill="black" stroke="black" points="157.33,-25.5 167.33,-22 157.33,-18.5 157.33,-25.5"/>
<text text-anchor="middle" x="148.11" y="-26.2" font-family="Times,serif" font-size="14.00">c</text>
</g>
<!-- 1&#45;&gt;1 -->
<g id="edge7" class="edge">
<title>1-&gt;1</title>
<path fill="none" stroke="black" d="M183.33,-42.99C182.36,-53.09 184.98,-62 191.21,-62 194.91,-62 197.34,-58.86 198.5,-54.19"/>
<polygon fill="black" stroke="black" points="201.98,-54.67 199.02,-44.5 194.99,-54.3 201.98,-54.67"/>
<text text-anchor="middle" x="191.21" y="-66.2" font-family="Times,serif" font-size="14.00">c</text>
</g>
<!-- 2 -->
<g id="node4" class="node">
<title>2</title>
<ellipse fill="none" stroke="black" cx="277.43" cy="-56" rx="18" ry="18"/>
<ellipse fill="none" stroke="black" cx="277.43" cy="-56" rx="22" ry="22"/>
<text text-anchor="middle" x="277.43" y="-51.8" font-family="Times,serif" font-size="14.00">2</text>
</g>
<!-- 1&#45;&gt;2 -->
<g id="edge5" class="edge">
<title>1-&gt;2</title>
<path fill="none" stroke="black" d="M212.17,-30.06C222.34,-34.16 234.93,-39.25 246.26,-43.82"/>
<polygon fill="black" stroke="black" points="244.63,-46.94 255.21,-47.43 247.25,-40.44 244.63,-46.94"/>
<text text-anchor="middle" x="234.32" y="-44.22" font-family="Times,serif" font-size="14.00">a</text>
</g>
<!-- 3 -->
<g id="node5" class="node">
<title>3</title>
<ellipse fill="none" stroke="black" cx="451.43" cy="-67" rx="18" ry="18"/>
<ellipse fill="none" stroke="black" cx="451.43" cy="-67" rx="22" ry="22"/>
<text text-anchor="middle" x="451.43" y="-62.8" font-family="Times,serif" font-size="14.00">3</text>
</g>
<!-- 1&#45;&gt;3 -->
<g id="edge6" class="edge">
<title>1-&gt;3</title>
<path fill="none" stroke="black" d="M213.37,-19C249.57,-14.59 325.37,-8.56 386.43,-25 400.52,-28.79 414.3,-37.06 425.44,-45.27"/>
<polygon fill="black" stroke="black" points="423.27,-48.01 433.31,-51.42 427.59,-42.5 423.27,-48.01"/>
<text text-anchor="middle" x="320.93" y="-19.46" font-family="Times,serif" font-size="14.00">b</text>
</g>
<!-- 2&#45;&gt;2 -->
<g id="edge8" class="edge">
<title>2-&gt;2</title>
<path fill="none" stroke="black" d="M269.54,-76.99C268.57,-87.09 271.2,-96 277.43,-96 281.13,-96 283.56,-92.86 284.72,-88.19"/>
<polygon fill="black" stroke="black" points="288.2,-88.67 285.23,-78.5 281.21,-88.3 288.2,-88.67"/>
<text text-anchor="middle" x="277.43" y="-100.2" font-family="Times,serif" font-size="14.00">a</text>
</g>
<!-- 2&#45;&gt;3 -->
<g id="edge9" class="edge">
<title>2-&gt;3</title>
<path fill="none" stroke="black" d="M290.03,-74.52C301.23,-90.48 319.79,-112.42 342.43,-122 360.44,-129.62 368.09,-128.8 386.43,-122 402.9,-115.9 417.98,-103.44 429.36,-91.93"/>
<polygon fill="black" stroke="black" points="431.64,-94.61 435.92,-84.92 426.53,-89.83 431.64,-94.61"/>
<text text-anchor="middle" x="364.43" y="-131.61" font-family="Times,serif" font-size="14.00">b</text>
</g>
<!-- 4 -->
<g id="node6" class="node">
<title>4</title>
<ellipse fill="none" stroke="black" cx="364.43" cy="-56" rx="18" ry="18"/>
<ellipse fill="none" stroke="black" cx="364.43" cy="-56" rx="22" ry="22"/>
<text text-anchor="middle" x="364.43" y="-51.8" font-family="Times,serif" font-size="14.00">4</text>
</g>
<!-- 2&#45;&gt;4 -->
<g id="edge10" class="edge">
<title>2-&gt;4</title>
<path fill="none" stroke="black" d="M299.88,-56C309.24,-56 320.42,-56 330.78,-56"/>
<polygon fill="black" stroke="black" points="330.47,-59.5 340.47,-56 330.47,-52.5 330.47,-59.5"/>
<text text-anchor="middle" x="320.93" y="-60.2" font-family="Times,serif" font-size="14.00">c</text>
</g>
<!-- 3&#45;&gt;3 -->
<g id="edge11" class="edge">
<title>3-&gt;3</title>
<path fill="none" stroke="black" d="M447.45,-88.81C447.07,-98.56 448.4,-107 451.43,-107 453.13,-107 454.3,-104.33 454.92,-100.26"/>
<polygon fill="black" stroke="black" points="458.42,-100.46 455.34,-90.32 451.42,-100.16 458.42,-100.46"/>
<text text-anchor="middle" x="451.43" y="-111.2" font-family="Times,serif" font-size="14.00">a</text>
</g>
<!-- 3&#45;&gt;3 -->
<g id="edge12" class="edge">
<title>3-&gt;3</title>
<path fill="none" stroke="black" d="M444.58,-88.42C441.65,-106.31 443.93,-125 451.43,-125 457.34,-125 460.01,-113.36 459.43,-99.66"/>
<polygon fill="black" stroke="black" points="462.94,-99.51 458.43,-89.92 455.97,-100.23 462.94,-99.51"/>
<text text-anchor="middle" x="451.43" y="-129.2" font-family="Times,serif" font-size="14.00">b</text>
</g>
<!-- 5 -->
<g id="node7" class="node">
<title>5</title>
<ellipse fill="none" stroke="black" cx="533.64" cy="-67" rx="18" ry="18"/>
<text text-anchor="middle" x="533.64" y="-62.8" font-family="Times,serif" font-size="14.00">5</text>
</g>
<!-- 3&#45;&gt;5 -->
<g id="edge13" class="edge">
<title>3-&gt;5</title>
<path fill="none" stroke="black" d="M473.92,-67C483.1,-67 493.94,-67 503.79,-67"/>
<polygon fill="black" stroke="black" points="503.63,-70.5 513.63,-67 503.63,-63.5 503.63,-70.5"/>
<text text-anchor="middle" x="494.53" y="-71.2" font-family="Times,serif" font-size="14.00">c</text>
</g>
<!-- 4&#45;&gt;3 -->
<g id="edge15" class="edge">
<title>4-&gt;3</title>
<path fill="none" stroke="black" d="M385.94,-61.48C391.87,-62.86 398.37,-64.18 404.43,-65 408.85,-65.6 413.52,-66.03 418.14,-66.35"/>
<polygon fill="black" stroke="black" points="417.62,-69.82 427.78,-66.82 417.96,-62.83 417.62,-69.82"/>
<text text-anchor="middle" x="407.93" y="-69.93" font-family="Times,serif" font-size="14.00">b</text>
</g>
<!-- 4&#45;&gt;3 -->
<g id="edge16" class="edge">
<title>4-&gt;3</title>
<path fill="none" stroke="black" d="M384.71,-46.55C392.95,-43.67 402.67,-41.83 411.43,-44.2 415.33,-45.26 419.24,-46.81 423,-48.63"/>
<polygon fill="black" stroke="black" points="421.3,-51.68 431.74,-53.47 424.69,-45.56 421.3,-51.68"/>
<text text-anchor="middle" x="407.93" y="-48.4" font-family="Times,serif" font-size="14.00">c</text>
</g>
<!-- 4&#45;&gt;4 -->
<g id="edge14" class="edge">
<title>4-&gt;4</title>
<path fill="none" stroke="black" d="M356.47,-76.99C355.49,-87.09 358.14,-96 364.43,-96 368.16,-96 370.61,-92.86 371.78,-88.19"/>
<polygon fill="black" stroke="black" points="375.26,-88.68 372.3,-78.5 368.27,-88.3 375.26,-88.68"/>
<text text-anchor="middle" x="364.43" y="-100.2" font-family="Times,serif" font-size="14.00">a</text>
</g>
<!-- 5&#45;&gt;5 -->
<g id="edge17" class="edge">
<title>5-&gt;5</title>
<path fill="none" stroke="black" d="M531.28,-85.15C530.92,-94.54 531.71,-103 533.64,-103 534.7,-103 535.41,-100.47 535.79,-96.64"/>
<polygon fill="black" stroke="black" points="539.28,-96.73 535.97,-86.67 532.29,-96.6 539.28,-96.73"/>
<text text-anchor="middle" x="533.64" y="-107.2" font-family="Times,serif" font-size="14.00">a</text>
</g>
<!-- 5&#45;&gt;5 -->
<g id="edge18" class="edge">
<title>5-&gt;5</title>
<path fill="none" stroke="black" d="M529.72,-84.98C527.63,-102.2 528.93,-121 533.64,-121 537.32,-121 538.92,-109.53 538.45,-96.29"/>
<polygon fill="black" stroke="black" points="541.95,-96.18 537.68,-86.49 534.97,-96.73 541.95,-96.18"/>
<text text-anchor="middle" x="533.64" y="-125.2" font-family="Times,serif" font-size="14.00">b</text>
</g>
<!-- 5&#45;&gt;5 -->
<g id="edge19" class="edge">
<title>5-&gt;5</title>
<path fill="none" stroke="black" d="M528.76,-84.72C524.3,-109.11 525.93,-139 533.64,-139 540.21,-139 542.37,-117.33 540.11,-95.83"/>
<polygon fill="black" stroke="black" points="543.61,-95.62 538.74,-86.21 536.68,-96.61 543.61,-95.62"/>
<text text-anchor="middle" x="533.64" y="-143.2" font-family="Times,serif" font-size="14.00">c</text>
</g>
</g>
</svg>