<svg xmlns="http://www.w3.org/2000/svg" xmlns:xlink="http://www.w3.org/1999/xlink" width="920pt" height="364pt" viewBox="0.00 0.00 919.55 364.24">
<g id="graph0" class="graph" transform="scale(1 1) rotate(0) translate(4 360.24)">
<title>PDA</title>
<polygon fill="white" stroke="none" points="-4,4 -4,-360.24 915.55,-360.24 915.55,4 -4,4"/>
<!-- __start -->
<g id="node1" class="node">
<title>__start</title>
<ellipse fill="black" stroke="black" cx="1.8" cy="-115.44" rx="1.8" ry="1.8"/>
</g>
<!-- 1 -->
<g id="node2" class="node">
<title>1</title>
<ellipse fill="none" stroke="black" cx="58.6" cy="-115.44" rx="18" ry="18"/>
<text text-anchor="middle" x="58.6" y="-111.24" font-family="Times,serif" font-size="14.00">1</text>
</g>
<!-- __start&#45;&gt;1 -->
<g id="edge1" class="edge">
<title>__start-&gt;1</title>
<path fill="none" stroke="black" d="M3.75,-115.44C6.96,-115.44 17.8,-115.44 28.92,-115.44"/>
<polygon fill="black" stroke="black" points="28.79,-118.94 38.79,-115.44 28.78,-111.94 28.79,-118.94"/>
</g>
<!-- 1&#45;&gt;1 -->
<g id="edge2" class="edge">
<title>1-&gt;1</title>
<path fill="none" stroke="black" d="M55.3,-133.59C54.79,-142.98 55.89,-151.44 58.6,-151.44 60.08,-151.44 61.08,-148.91 61.6,-145.08"/>
<polygon fill="black" stroke="black" points="65.1,-145.2 61.86,-135.11 58.1,-145.01 65.1,-145.2"/>
<text text-anchor="middle" x="58.6" y="-155.64" font-family="Times,serif" font-size="14.00">a, x/Ax</text>
</g>
<!-- 1&#45;&gt;1 -->
<g id="edge3" class="edge">
<title>1-&gt;1</title>
<path fill="none" stroke="black" d="M53.21,-132.86C50.14,-150.23 51.93,-169.44 58.6,-169.44 63.86,-169.44 66.09,-157.48 65.28,-143.9"/>
<polygon fill="black" stroke="black" points="68.81,-143.89 64.17,-134.37 61.85,-144.7 68.81,-143.89"/>
<text text-anchor="middle" x="58.6" y="-173.64" font-family="Times,serif" font-size="14.00">b, x/Bx</text>
</g>
<!-- 4 -->
<g id="node4" class="node">
<title>4</title>
<ellipse fill="none" stroke="black" cx="171.81" cy="-71.44" rx="18" ry="18"/>
<text text-anchor="middle" x="171.81" y="-67.24" font-family="Times,serif" font-size="14.00">4</text>
</g>
<!-- 1&#45;&gt;4 -->
<g id="edge4" class="edge">
<title>1-&gt;4</title>
<path fill="none" stroke="black" d="M75.53,-109.14C93.35,-102.09 122.51,-90.55 143.89,-82.09"/>
<polygon fill="black" stroke="black" points="145.13,-85.37 153.14,-78.43 142.55,-78.86 145.13,-85.37"/>
<text text-anchor="middle" x="115.21" y="-105.41" font-family="Times,serif" font-size="14.00">a, x/Xx</text>
</g>
<!-- 2 -->
<g id="node5" class="node">
<title>2</title>
<ellipse fill="none" stroke="black" cx="171.81" cy="-160.44" rx="18" ry="18"/>
<text text-anchor="middle" x="171.81" y="-156.24" font-family="Times,serif" font-size="14.00">2</text>
</g>
<!-- 1&#45;&gt;2 -->
<g id="edge5" class="edge">
<title>1-&gt;2</title>
<path fill="none" stroke="black" d="M75.53,-121.89C93.35,-129.1 122.51,-140.9 143.89,-149.55"/>
<polygon fill="black" stroke="black" points="142.56,-152.79 153.14,-153.29 145.19,-146.3 142.56,-152.79"/>
<text text-anchor="middle" x="115.21" y="-150.09" font-family="Times,serif" font-size="14.00">c</text>
</g>
<!-- F -->
<g id="node3" class="node">
<title>F</title>
<ellipse fill="none" stroke="black" cx="889.55" cy="-254.44" rx="18" ry="18"/>
<ellipse fill="none" stroke="black" cx="889.55" cy="-254.44" rx="22" ry="22"/>
<text text-anchor="middle" x="889.55" y="-250.24" font-family="Times,serif" font-size="14.00">F</text>
</g>
<!-- 4&#45;&gt;4 -->
<g id="edge13" class="edge">
<title>4-&gt;4</title>
<path fill="none" stroke="black" d="M164.88,-88.48C163.47,-98.3 165.78,-107.44 171.81,-107.44 175.3,-107.44 177.55,-104.39 178.55,-99.91"/>
<polygon fill="black" stroke="black" points="182.04,-100.05 178.72,-89.99 175.04,-99.93 182.04,-100.05"/>
<text text-anchor="middle" x="171.81" y="-111.64" font-family="Times,serif" font-size="14.00">a, x/Xx</text>
</g>
<!-- 6 -->
<g id="node9" class="node">
<title>6</title>
<ellipse fill="none" stroke="black" cx="311.85" cy="-71.44" rx="18" ry="18"/>
<text text-anchor="middle" x="311.85" y="-67.24" font-family="Times,serif" font-size="14.00">6</text>
</g>
<!-- 4&#45;&gt;6 -->
<g id="edge14" class="edge">
<title>4-&gt;6</title>
<path fill="none" stroke="black" d="M190.3,-71.44C213.42,-71.44 254.49,-71.44 282.19,-71.44"/>
<polygon fill="black" stroke="black" points="281.99,-74.94 291.99,-71.44 281.99,-67.94 281.99,-74.94"/>
<text text-anchor="middle" x="210.92" y="-75.64" font-family="Times,serif" font-size="14.00">c</text>
</g>
<!-- 3 -->
<g id="node6" class="node">
<title>3</title>
<ellipse fill="none" stroke="black" cx="252.63" cy="-241.44" rx="18" ry="18"/>
<text text-anchor="middle" x="252.63" y="-237.24" font-family="Times,serif" font-size="14.00">3</text>
</g>
<!-- 2&#45;&gt;3 -->
<g id="edge6" class="edge">
<title>2-&gt;3</title>
<path fill="none" stroke="black" d="M185.13,-173.1C197.51,-185.82 216.8,-205.64 231.42,-220.67"/>
<polygon fill="black" stroke="black" points="228.87,-223.06 238.35,-227.79 233.88,-218.18 228.87,-223.06"/>
<text text-anchor="middle" x="210.92" y="-205.14" font-family="Times,serif" font-size="14.00">c</text>
</g>
<!-- 5 -->
<g id="node7" class="node">
<title>5</title>
<ellipse fill="none" stroke="black" cx="368.46" cy="-160.44" rx="18" ry="18"/>
<text text-anchor="middle" x="368.46" y="-156.24" font-family="Times,serif" font-size="14.00">5</text>
</g>
<!-- 2&#45;&gt;5 -->
<g id="edge7" class="edge">
<title>2-&gt;5</title>
<path fill="none" stroke="black" d="M190.09,-160.44C223.63,-160.44 297.89,-160.44 338.89,-160.44"/>
<polygon fill="black" stroke="black" points="338.71,-163.94 348.71,-160.44 338.71,-156.94 338.71,-163.94"/>
<text text-anchor="middle" x="252.63" y="-164.64" font-family="Times,serif" font-size="14.00">a, x/Xx</text>
</g>
<!-- 3&#45;&gt;F -->
<g id="edge12" class="edge">
<title>3-&gt;F</title>
<path fill="none" stroke="black" d="M262.29,-257.19C278.8,-284.89 317.65,-339.44 367.46,-339.44 367.46,-339.44 367.46,-339.44 755.87,-339.44 800.9,-339.44 842.87,-304.3 867.1,-279.21"/>
<polygon fill="black" stroke="black" points="869.62,-281.64 873.88,-271.94 864.5,-276.87 869.62,-281.64"/>
<text text-anchor="middle" x="560.21" y="-343.64" font-family="Times,serif" font-size="14.00">eps, z0/z0</text>
</g>
<!-- 3&#45;&gt;3 -->
<g id="edge8" class="edge">
<title>3-&gt;3</title>
<path fill="none" stroke="black" d="M245.3,-258.11C243.67,-268.07 246.12,-277.44 252.63,-277.44 256.5,-277.44 258.94,-274.14 259.94,-269.37"/>
<polygon fill="black" stroke="black" points="263.44,-269.63 259.96,-259.62 256.44,-269.61 263.44,-269.63"/>
<text text-anchor="middle" x="252.63" y="-281.64" font-family="Times,serif" font-size="14.00">c</text>
</g>
<!-- 3&#45;&gt;5 -->
<g id="edge11" class="edge">
<title>3-&gt;5</title>
<path fill="none" stroke="black" d="M266.94,-229.97C274.02,-224.02 282.95,-216.74 291.24,-210.64 308.04,-198.28 327.71,-185.36 342.86,-175.72"/>
<polygon fill="black" stroke="black" points="344.66,-178.72 351.26,-170.43 340.93,-172.8 344.66,-178.72"/>
<text text-anchor="middle" x="311.85" y="-214.84" font-family="Times,serif" font-size="14.00">a, x/Xx</text>
</g>
<!-- 10 -->
<g id="node8" class="node">
<title>10</title>
<ellipse fill="none" stroke="black" cx="754.87" cy="-169.44" rx="20.69" ry="20.69"/>
<text text-anchor="middle" x="754.87" y="-165.24" font-family="Times,serif" font-size="14.00">10</text>
</g>
<!-- 3&#45;&gt;10 -->
<g id="edge9" class="edge">
<title>3-&gt;10</title>
<path fill="none" stroke="black" d="M267.06,-252.42C287.44,-267.95 328,-294.44 367.46,-294.44 367.46,-294.44 367.46,-294.44 625.2,-294.44 669.19,-294.44 684.95,-286.42 716.18,-255.44 731.25,-240.49 740.74,-218.5 746.43,-200.49"/>
<polygon fill="black" stroke="black" points="749.74,-201.66 749.15,-191.08 743.01,-199.72 749.74,-201.66"/>
<text text-anchor="middle" x="491.28" y="-298.64" font-family="Times,serif" font-size="14.00">a, A/eps</text>
</g>
<!-- 3&#45;&gt;10 -->
<g id="edge10" class="edge">
<title>3-&gt;10</title>
<path fill="none" stroke="black" d="M270.99,-241.44C293.31,-241.44 333.27,-241.44 367.46,-241.44 367.46,-241.44 367.46,-241.44 625.2,-241.44 667.51,-241.44 680.8,-236.64 716.18,-213.44 723.47,-208.66 730.14,-202.08 735.78,-195.46"/>
<polygon fill="black" stroke="black" points="738.4,-197.79 741.85,-187.77 732.9,-193.45 738.4,-197.79"/>
<text text-anchor="middle" x="491.28" y="-245.64" font-family="Times,serif" font-size="14.00">b, B/eps</text>
</g>
<!-- 5&#45;&gt;5 -->
<g id="edge15" class="edge">
<title>5-&gt;5</title>
<path fill="none" stroke="black" d="M358.78,-175.98C356.05,-186.35 359.28,-196.44 368.46,-196.44 374.05,-196.44 377.43,-192.69 378.6,-187.42"/>
<polygon fill="black" stroke="black" points="382.1,-187.34 378.2,-177.5 375.11,-187.63 382.1,-187.34"/>
<text text-anchor="middle" x="368.46" y="-200.64" font-family="Times,serif" font-size="14.00">a, x/Xx</text>
</g>
<!-- 7 -->
<g id="node10" class="node">
<title>7</title>
<ellipse fill="none" stroke="black" cx="491.28" cy="-160.44" rx="18" ry="18"/>
<text text-anchor="middle" x="491.28" y="-156.24" font-family="Times,serif" font-size="14.00">7</text>
</g>
<!-- 5&#45;&gt;7 -->
<g id="edge16" class="edge">
<title>5-&gt;7</title>
<path fill="none" stroke="black" d="M386.77,-160.44C406.32,-160.44 438.46,-160.44 461.74,-160.44"/>
<polygon fill="black" stroke="black" points="461.48,-163.94 471.48,-160.44 461.48,-156.94 461.48,-163.94"/>
<text text-anchor="middle" x="427.39" y="-164.64" font-family="Times,serif" font-size="14.00">c</text>
</g>
<!-- 10&#45;&gt;F -->
<g id="edge30" class="edge">
<title>10-&gt;F</title>
<path fill="none" stroke="black" d="M772.95,-180.38C795.29,-194.69 834.71,-219.95 861.22,-236.94"/>
<polygon fill="black" stroke="black" points="859.11,-239.74 869.42,-242.19 862.89,-233.84 859.11,-239.74"/>
<text text-anchor="middle" x="821.56" y="-233.53" font-family="Times,serif" font-size="14.00">eps, z0/z0</text>
</g>
<!-- 10&#45;&gt;10 -->
<g id="edge28" class="edge">
<title>10-&gt;10</title>
<path fill="none" stroke="black" d="M748.81,-189.35C747.97,-199.28 749.99,-208.13 754.87,-208.13 757.7,-208.13 759.56,-205.17 760.47,-200.76"/>
<polygon fill="black" stroke="black" points="763.97,-201 760.88,-190.86 756.97,-200.71 763.97,-201"/>
<text text-anchor="middle" x="754.87" y="-212.33" font-family="Times,serif" font-size="14.00">a, A/eps</text>
</g>
<!-- 10&#45;&gt;10 -->
<g id="edge29" class="edge">
<title>10-&gt;10</title>
<path fill="none" stroke="black" d="M744.94,-188.02C739.45,-206.18 742.76,-226.13 754.87,-226.13 764.53,-226.13 768.59,-213.47 767.06,-199.13"/>
<polygon fill="black" stroke="black" points="770.53,-198.61 765.11,-189.51 763.67,-200 770.53,-198.61"/>
<text text-anchor="middle" x="754.87" y="-230.33" font-family="Times,serif" font-size="14.00">b, B/eps</text>
</g>
<!-- 8 -->
<g id="node11" class="node">
<title>8</title>
<ellipse fill="none" stroke="black" cx="624.2" cy="-71.44" rx="18" ry="18"/>
<text text-anchor="middle" x="624.2" y="-67.24" font-family="Times,serif" font-size="14.00">8</text>
</g>
<!-- 6&#45;&gt;8 -->
<g id="edge17" class="edge">
<title>6-&gt;8</title>
<path fill="none" stroke="black" d="M329.98,-71.44C380.73,-71.44 530.71,-71.44 594.24,-71.44"/>
<polygon fill="black" stroke="black" points="594.23,-74.94 604.23,-71.44 594.23,-67.94 594.23,-74.94"/>
<text text-anchor="middle" x="427.39" y="-75.64" font-family="Times,serif" font-size="14.00">a, X/eps</text>
</g>
<!-- 7&#45;&gt;8 -->
<g id="edge19" class="edge">
<title>7-&gt;8</title>
<path fill="none" stroke="black" d="M506.79,-150.58C529.1,-135.41 572.09,-106.18 599.12,-87.81"/>
<polygon fill="black" stroke="black" points="601.07,-90.72 607.37,-82.2 597.13,-84.93 601.07,-90.72"/>
<text text-anchor="middle" x="560.21" y="-135.85" font-family="Times,serif" font-size="14.00">a, X/eps</text>
</g>
<!-- 9 -->
<g id="node12" class="node">
<title>9</title>
<ellipse fill="none" stroke="black" cx="624.2" cy="-160.44" rx="18" ry="18"/>
<text text-anchor="middle" x="624.2" y="-156.24" font-family="Times,serif" font-size="14.00">9</text>
</g>
<!-- 7&#45;&gt;9 -->
<g id="edge18" class="edge">
<title>7-&gt;9</title>
<path fill="none" stroke="black" d="M509.66,-160.44C531.28,-160.44 568.49,-160.44 594.39,-160.44"/>
<polygon fill="black" stroke="black" points="594.23,-163.94 604.23,-160.44 594.23,-156.94 594.23,-163.94"/>
<text text-anchor="middle" x="560.21" y="-164.64" font-family="Times,serif" font-size="14.00">eps</text>
</g>
<!-- 8&#45;&gt;10 -->
<g id="edge21" class="edge">
<title>8-&gt;10</title>
<path fill="none" stroke="black" d="M629.9,-54.08C634.84,-39.61 644.17,-19.91 660.2,-10.64 681.74,1.81 696.66,4.79 716.18,-10.64 735.8,-26.15 746.28,-95.75 750.9,-137.49"/>
<polygon fill="black" stroke="black" points="747.4,-137.62 751.92,-147.2 754.36,-136.89 747.4,-137.62"/>
<text text-anchor="middle" x="688.19" y="-14.84" font-family="Times,serif" font-size="14.00">c, A/A</text>
</g>
<!-- 8&#45;&gt;10 -->
<g id="edge22" class="edge">
<title>8-&gt;10</title>
<path fill="none" stroke="black" d="M642.42,-73.61C662.17,-76.87 694.61,-84.7 716.18,-102.64 727.86,-112.35 736.61,-126.67 742.73,-139.56"/>
<polygon fill="black" stroke="black" points="739.44,-140.78 746.65,-148.54 745.86,-137.97 739.44,-140.78"/>
<text text-anchor="middle" x="688.19" y="-106.84" font-family="Times,serif" font-size="14.00">c, B/B</text>
</g>
<!-- 8&#45;&gt;10 -->
<g id="edge23" class="edge">
<title>8-&gt;10</title>
<path fill="none" stroke="black" d="M640.27,-62.85C659.68,-53.05 693.59,-40.37 716.18,-56.64 741.46,-74.85 750.04,-110.78 752.81,-137.22"/>
<polygon fill="black" stroke="black" points="749.32,-137.4 753.6,-147.09 756.3,-136.84 749.32,-137.4"/>
<text text-anchor="middle" x="688.19" y="-60.84" font-family="Times,serif" font-size="14.00">c, z0/z0</text>
</g>
<!-- 8&#45;&gt;8 -->
<g id="edge20" class="edge">
<title>8-&gt;8</title>
<path fill="none" stroke="black" d="M613.49,-86.23C610.01,-96.86 613.58,-107.44 624.2,-107.44 630.84,-107.44 634.72,-103.31 635.85,-97.61"/>
<polygon fill="black" stroke="black" points="639.35,-97.42 635.03,-87.74 632.37,-98 639.35,-97.42"/>
<text text-anchor="middle" x="624.2" y="-111.64" font-family="Times,serif" font-size="14.00">a, X/eps</text>
</g>
<!-- 9&#45;&gt;10 -->
<g id="edge25" class="edge">
<title>9-&gt;10</title>
<path fill="none" stroke="black" d="M636.73,-146.95C642.96,-140.7 651.21,-133.95 660.2,-130.64 683.55,-122.05 693.26,-120.95 716.18,-130.64 723.11,-133.57 729.39,-138.46 734.75,-143.8"/>
<polygon fill="black" stroke="black" points="732.1,-146.09 741.37,-151.22 737.32,-141.43 732.1,-146.09"/>
<text text-anchor="middle" x="688.19" y="-134.84" font-family="Times,serif" font-size="14.00">eps, A/A</text>
</g>
<!-- 9&#45;&gt;10 -->
<g id="edge26" class="edge">
<title>9-&gt;10</title>
<path fill="none" stroke="black" d="M637.27,-172.97C643.52,-178.55 651.63,-184.52 660.2,-187.44 683.75,-195.47 691.92,-192.94 716.18,-187.44 719.43,-186.71 722.73,-185.65 725.95,-184.42"/>
<polygon fill="black" stroke="black" points="727.35,-187.63 735.06,-180.37 724.5,-181.24 727.35,-187.63"/>
<text text-anchor="middle" x="688.19" y="-196.76" font-family="Times,serif" font-size="14.00">eps, B/B</text>
</g>
<!-- 9&#45;&gt;10 -->
<g id="edge27" class="edge">
<title>9-&gt;10</title>
<path fill="none" stroke="black" d="M642.64,-161.6C660.96,-162.82 690.6,-164.82 716.18,-166.64 718.25,-166.79 720.38,-166.94 722.53,-167.1"/>
<polygon fill="black" stroke="black" points="722.18,-170.58 732.41,-167.83 722.7,-163.6 722.18,-170.58"/>
<text text-anchor="middle" x="688.19" y="-170.84" font-family="Times,serif" font-size="14.00">eps, z0/z0</text>
</g>
<!-- 9&#45;&gt;9 -->
<g id="edge24" class="edge">
<title>9-&gt;9</title>
<path fill="none" stroke="black" d="M613.49,-175.23C610.01,-185.86 613.58,-196.44 624.2,-196.44 630.84,-196.44 634.72,-192.31 635.85,-186.61"/>
<polygon fill="black" stroke="black" points="639.35,-186.42 635.03,-176.74 632.37,-187 639.35,-186.42"/>
<text text-anchor="middle" x="624.2" y="-200.64" font-family="Times,serif" font-size="14.00">eps, X/eps</text>
</g>
</g>
</svg>